<svg xmlns="http://www.w3.org/2000/svg" width="182.534" height="81.435"><path fill="#00579f" d="M14.428 6.268C4.493 20.688 6.416 35.75 6.416 35.75 9.94 25.174 15.07 15.24 21.48 6.268h-7.052zm19.87 0l-5.77 6.728c-13.78 17.626-21.15 39.1-21.792 61.21v.962h9.295c2.245-19.228 9.294-37.814 21.472-53.518 4.487-5.768 9.935-10.896 15.383-15.382H34.297zm31.085.32c-7.37 4.486-14.1 10.574-19.87 17.625-12.177 14.742-19.867 32.368-22.43 50.955h14.74c3.845-14.1 10.254-27.24 19.868-38.457 2.245-2.883 4.81-5.767 7.693-8.01V6.587zm0 29.482c-1.603 1.282-2.884 2.884-4.487 4.807-8.332 9.935-14.74 21.793-18.585 34.29h23.073V36.07z"/><path fill="#00579f" d="M111.217 57.518v3.103h3.346V57.52h-3.346zm-33.334.166v17.15h3.582v-17.15h-3.582zm11.88 4.11c-2.605 0-5.305.547-5.687 4.44H87.3c.096-.74.383-1.767 2.055-1.767.86 0 2.198.073 2.198 1.482 0 .716-.645.93-1.17 1l-3.01.456c-2.126.31-3.703 1.577-3.703 4.06 0 2.628 1.96 3.702 3.87 3.702 2.27 0 3.344-1.05 4.108-1.838.072.717.12.907.31 1.504h3.608v-.502c-.406-.143-.74-.478-.74-1.982v-6.88c0-3.128-3.273-3.677-5.064-3.677zm12.817 0c-3.965 0-5.137 2.388-5.137 4.25 0 4.754 7.883 3.152 7.883 5.278 0 .478-.405 1.315-2.125 1.315-2.1 0-2.77-.79-2.77-1.864h-3.44c.096 3.392 3.225 4.395 6.115 4.395 1.983 0 5.565-.67 5.565-4.37 0-4.683-7.953-3.225-7.953-5.232 0-.55.24-1.242 2.054-1.242 1.817 0 2.102.86 2.246 1.672h3.273c-.264-3.583-3.226-4.203-5.71-4.203zm8.637.333v12.707h3.346V62.127h-3.346zm-19.664 6.52v1.624c0 1.554-1.506 2.51-2.987 2.51-.645 0-1.552-.358-1.552-1.528 0-1.385 1.027-1.697 2.27-1.912 1.385-.215 1.934-.43 2.27-.692zm10.558 7.423l-1.596 3.49h1.716l2.502-3.49h-2.62z"/><path fill="#1f1a17" d="M122.873 14.625v3.105h3.346v-3.105h-3.347zm-44.99.168v17.15h3.51V25.23h3.703c2.65 0 2.795.908 2.795 3.25 0 1.766.143 2.65.38 3.463h3.968v-.455c-.764-.286-.765-.908-.765-3.416 0-3.2-.765-3.724-2.174-4.345 1.695-.574 2.65-2.2 2.65-4.086 0-1.48-.835-4.847-5.397-4.847h-8.67zm38.558 0v6.09h-.047c-.526-.812-1.528-1.983-3.678-1.983-2.795 0-5.28 2.15-5.28 6.545 0 3.488 1.578 6.832 5.352 6.832 1.385 0 2.866-.502 3.678-1.935h.047v1.6h3.273v-17.15h-3.344zm-35.047 2.96h4.466c2.1 0 2.507 1.34 2.507 2.247 0 1.696-.906 2.34-2.77 2.34h-4.204v-4.586zM100.11 18.9c-2.602 0-5.302.55-5.684 4.444h3.224c.096-.74.383-1.768 2.055-1.768.86 0 2.197.07 2.197 1.48 0 .717-.644.933-1.17 1.005l-3.01.454c-2.125.31-3.7 1.576-3.7 4.06 0 2.628 1.958 3.703 3.87 3.703 2.268 0 3.342-1.05 4.106-1.84.072.717.12.91.31 1.506h3.608v-.502c-.406-.142-.74-.476-.74-1.98v-6.88c0-3.13-3.273-3.68-5.065-3.68zm35.05 0c-3.416 0-6.498 2.104-6.498 6.69s3.082 6.687 6.498 6.687c3.416 0 6.496-2.1 6.496-6.687 0-4.586-3.08-6.69-6.496-6.69zm-12.287.334v12.71h3.346v-12.71h-3.347zm12.287 2.485c2.58 0 3.057 2.246 3.057 3.87s-.477 3.87-3.057 3.87-3.058-2.246-3.058-3.87.478-3.87 3.058-3.87zm-21.44.07c2.292 0 2.864 2.055 2.864 4.085 0 1.887-.835 3.654-2.96 3.654-2.15 0-2.75-2.342-2.75-3.846 0-2.007.72-3.893 2.845-3.893zM101.9 25.757v1.625c0 1.553-1.503 2.51-2.984 2.51-.645 0-1.553-.36-1.553-1.53 0-1.386 1.028-1.696 2.27-1.91 1.385-.216 1.933-.43 2.267-.694zm32.414 9.72l-2.722 3.485h2.7l1.503-1.958 1.53 1.96h2.698l-2.722-3.487h-2.987zm24.387.594v3.106h3.344V36.07h-3.344zm-80.82.168v17.15h3.51v-6.712h3.703c2.65 0 2.795.907 2.795 3.248 0 1.767.143 2.653.38 3.465h3.968v-.456c-.764-.287-.765-.906-.765-3.414 0-3.2-.765-3.727-2.174-4.348 1.695-.573 2.65-2.197 2.65-4.084 0-1.48-.835-4.85-5.397-4.85h-8.67zm3.51 2.96h4.466c2.1 0 2.507 1.34 2.507 2.247 0 1.696-.906 2.34-2.77 2.34h-4.204V39.2zm19.244 1.148c-3.416 0-6.496 2.103-6.496 6.69 0 4.585 3.08 6.687 6.497 6.687 3.415 0 6.498-2.102 6.498-6.688s-3.083-6.69-6.498-6.69zm15.677 0c-2.245 0-3.177 1.363-3.607 2.2h-.047V40.68h-3.2V53.39h3.343v-7.742c0-1.385.5-2.484 2.078-2.484 2.007 0 2.007 1.505 2.007 2.58v7.645h3.343v-7.622c0-1.505.598-2.604 2.27-2.604.98 0 1.816.623 1.816 2.51v7.715h3.344v-8.792c0-2.795-1.936-4.252-4.42-4.252-2.03 0-2.96 1.41-3.39 2.03-.86-1.36-1.696-2.03-3.536-2.03zm19.625 0c-2.604 0-5.302.55-5.684 4.443h3.224c.096-.74.383-1.77 2.055-1.77.86 0 2.197.073 2.197 1.482 0 .717-.646.932-1.17 1.004l-3.01.453c-2.127.31-3.702 1.575-3.702 4.06 0 2.627 1.958 3.703 3.87 3.703 2.268 0 3.344-1.052 4.108-1.84.072.716.12.91.31 1.506h3.606v-.503c-.406-.144-.74-.478-.74-1.983v-6.88c0-3.128-3.273-3.678-5.065-3.678zm15.136 0c-2.412 0-3.368 1.435-3.822 2.2h-.05V40.68h-3.198V53.39h3.344v-7.286c0-1.935 1.146-2.94 2.627-2.94 2.125 0 2.173 1.578 2.173 2.51v7.715h3.344v-8.792c0-2.795-1.934-4.252-4.418-4.252zm19.387 0c-2.604 0-5.303.55-5.686 4.443h3.225c.096-.74.383-1.77 2.055-1.77.86 0 2.197.073 2.197 1.482 0 .717-.645.932-1.17 1.004l-3.01.453c-2.126.31-3.703 1.575-3.703 4.06 0 2.627 1.96 3.703 3.872 3.703 2.27 0 3.343-1.052 4.108-1.84.07.716.12.91.31 1.506h3.608v-.503c-.406-.144-.74-.478-.74-1.983v-6.88c0-3.128-3.274-3.678-5.065-3.678zm-11.76.336V53.39h3.344V40.68h-3.344zm-58.066 2.482c2.58 0 3.058 2.247 3.058 3.87 0 1.625-.48 3.87-3.058 3.87-2.58 0-3.057-2.245-3.057-3.87 0-1.623.477-3.87 3.057-3.87zm37.095 4.037v1.626c0 1.553-1.505 2.508-2.986 2.508-.645 0-1.553-.36-1.553-1.53 0-1.385 1.028-1.694 2.27-1.91 1.385-.214 1.935-.43 2.27-.693zm34.522 0v1.626c0 1.553-1.505 2.508-2.986 2.508-.645 0-1.55-.36-1.55-1.53 0-1.385 1.024-1.694 2.266-1.91 1.386-.214 1.936-.43 2.27-.693z"/></svg>