<?xml version="1.0" encoding="utf-8" ?>
<svg xmlns="http://www.w3.org/2000/svg" xmlns:xlink="http://www.w3.org/1999/xlink" width="1024" height="1024">
	<path fill="#FBFCFC" d="M0 0L1024 0L1024 1024L0 1024L0 0Z"/>
	<path fill="#010216" d="M491.501 89.3359C492.105 84.5826 492.848 80.1427 495.747 76.1606C498.815 71.9481 503.547 69.3538 508.672 68.6451Q509.159 68.5737 509.65 68.5265Q510.14 68.4794 510.632 68.4567Q511.124 68.4339 511.617 68.4356Q512.109 68.4373 512.601 68.4635Q513.093 68.4896 513.583 68.5402Q514.073 68.5907 514.56 68.6655Q515.047 68.7403 515.53 68.8391Q516.012 68.938 516.489 69.0607Q516.966 69.1834 517.437 69.3296Q517.907 69.4758 518.37 69.6452Q518.832 69.8146 519.286 70.0067Q519.739 70.1988 520.183 70.4133Q520.626 70.6277 521.059 70.8638Q521.491 71.1 521.911 71.3573Q522.331 71.6146 522.738 71.8925Q523.145 72.1703 523.537 72.468C529.083 76.7382 530.334 82.562 531.039 89.1238C532.943 89.586 534.963 90.0399 536.72 90.919C541.505 93.3131 545.075 97.8072 546.633 102.887Q546.788 103.398 546.918 103.916Q547.048 104.434 547.152 104.958Q547.256 105.482 547.333 106.011Q547.411 106.539 547.463 107.071Q547.514 107.603 547.539 108.136Q547.564 108.67 547.562 109.204Q547.561 109.738 547.532 110.272Q547.504 110.805 547.45 111.336Q547.395 111.868 547.314 112.396Q547.233 112.924 547.126 113.447Q547.019 113.97 546.886 114.488Q546.753 115.005 546.595 115.515Q546.436 116.025 546.252 116.527Q546.069 117.029 545.861 117.521Q545.652 118.012 545.42 118.493Q545.187 118.974 544.931 119.443C542.061 124.613 537.827 127.249 532.31 128.82L534.06 148.137L549.991 148.224C550.76 146.816 551.552 145.479 552.693 144.333C555.272 141.74 558.69 140.485 562.319 140.545C566.551 140.614 571.146 141.998 574.027 145.248C576.485 148.022 577.711 152.107 577.337 155.782C576.91 159.978 574.444 163.702 571.086 166.172C568.009 168.436 564.108 169.568 560.321 168.788C555.07 167.705 551.853 164.038 548.933 159.874C544.433 159.803 539.92 159.918 535.419 159.958C535.403 168.998 536.377 178.195 537.016 187.222Q543.5 187.501 549.989 187.427C550.894 186.322 551.829 185.255 552.882 184.286C555.832 181.573 559.655 179.951 563.699 180.214C567.905 180.488 572.445 182.736 575.131 185.996Q575.576 186.541 575.963 187.128Q576.349 187.716 576.674 188.34Q576.998 188.964 577.256 189.618Q577.514 190.273 577.703 190.95Q577.893 191.628 578.011 192.321Q578.13 193.014 578.177 193.716Q578.224 194.418 578.198 195.121Q578.172 195.824 578.074 196.52C577.49 200.46 575.086 203.997 571.889 206.311C568.744 208.586 564.733 209.662 560.89 208.913C555.482 207.859 552.119 203.922 549.306 199.527C545.386 199.484 541.463 199.523 537.543 199.525L547.071 367.844C567.184 372.893 585.416 380.954 601.157 394.741C627.333 417.666 639.392 450.001 635.149 484.477C633.435 498.402 629.65 511.863 630.586 526.015C640.309 536.034 662.2 541.85 675.641 544.611C675.041 567.973 675.462 591.429 675.337 614.804L675.411 616.828L674.794 617.334C673.147 616.712 671.853 615.382 670.538 614.239C649.106 599.212 630.082 591.911 605.062 585.448C603.733 604.386 604.861 625.902 617.839 641.029C623.29 647.382 630.318 651.324 638.771 651.922C646.422 652.462 653.75 650.381 660.396 646.682C664.146 652.37 667.596 658.265 671.459 663.875C663.21 671.016 657.371 679.102 656.543 690.3C655.531 703.99 662.539 717.56 665.804 730.647C676.316 772.783 657.875 814.346 626.064 842.081Q620.026 847.28 613.463 851.799Q606.901 856.318 599.89 860.104C597.699 864.134 589.618 869.602 588.841 872.306L589.418 872.831C610.268 865.096 630.615 852.935 647.381 838.305C675.103 814.113 695.876 779.312 698.272 741.959C699.044 729.918 698.786 717.722 698.819 705.659L698.868 649.101L698.904 486.57L698.877 365.727L698.828 329.885C698.812 321.709 699.111 313.24 698.208 305.107C697.166 295.737 692.837 287.098 686.613 280.103C674.74 266.76 657.583 259.723 639.993 258.802L639.991 242.473L755.112 242.433Q754.366 315.111 754.739 387.79L754.735 597.517L754.725 683.066C754.807 711.416 756.332 740.159 750.427 768.063Q749.718 771.481 748.888 774.871Q748.058 778.262 747.108 781.62Q746.158 784.979 745.089 788.302Q744.02 791.625 742.834 794.908Q741.648 798.191 740.346 801.429Q739.044 804.668 737.628 807.858Q736.211 811.048 734.682 814.186Q733.154 817.324 731.514 820.406Q729.875 823.487 728.127 826.509Q726.379 829.53 724.525 832.488Q722.671 835.445 720.713 838.335Q718.755 841.224 716.695 844.043Q714.636 846.861 712.478 849.604Q710.319 852.347 708.065 855.012Q705.81 857.677 703.463 860.26Q701.115 862.843 698.677 865.341C650.131 914.711 581.536 940.569 512.743 940.993C442.949 941.424 372.632 914.206 323.022 864.785C288.644 830.537 264.476 785.221 259.253 736.69C257.701 722.272 258.093 707.553 258.068 693.067L257.921 633.149C260.395 631.99 262.71 630.567 265.05 629.165C278.874 658.4 294.656 673.074 323.543 687.07C321.906 690.051 320.553 693.316 319.387 696.507C309.42 723.808 316.206 753.355 328.043 778.925C348.453 823.014 388.181 856.243 433.507 872.813C433.61 872.518 433.849 871.51 433.701 871.233C431.619 867.358 417.447 862.332 415.121 855.645C412.227 852.816 407.69 850.736 404.38 848.306C399.328 844.598 394.462 840.102 390.012 835.695C361.16 807.123 346.518 768.997 356.902 728.72C359.917 717.027 366.212 704.94 366.063 692.727C365.914 680.509 359.405 672.001 351.025 663.821C354.814 658.234 358.323 652.583 361.465 646.607C369.193 650.3 377.004 652.902 385.685 651.836C394.002 650.816 400.746 646.428 405.82 639.911C418.562 623.544 418.967 601.853 416.437 582.228C406.176 579.928 395.747 578.381 385.494 576.014C342.144 566.004 303.161 549.475 277.145 511.36C253.284 476.401 248.841 432.245 256.709 391.443C265.515 345.768 294.803 304.367 333.156 278.53C378.027 248.301 429.906 240.395 482.44 250.571C482.841 236.47 484.079 222.424 483.859 208.3L470.964 208.075C469.765 210.079 468.24 211.693 466.341 213.061C463.16 215.351 459.66 216.633 455.72 215.943Q454.986 215.815 454.268 215.615Q453.55 215.416 452.855 215.146Q452.16 214.876 451.495 214.539Q450.83 214.202 450.202 213.802Q449.573 213.401 448.988 212.94Q448.402 212.479 447.865 211.962Q447.327 211.446 446.843 210.879Q446.359 210.312 445.934 209.7Q445.523 209.12 445.173 208.501Q444.823 207.882 444.538 207.23Q444.253 206.579 444.036 205.902Q443.819 205.224 443.672 204.529Q443.525 203.833 443.45 203.126Q443.375 202.418 443.373 201.707Q443.371 200.996 443.441 200.288Q443.511 199.581 443.653 198.884C444.332 195.531 446.098 192.525 449.05 190.713C452.593 188.538 457.581 188.024 461.573 189.051C465.638 190.096 468.265 192.633 470.353 196.152Q477.207 196.227 484.059 196.431C485.234 186.699 485.436 176.706 486.019 166.917L472.14 167.11C470.948 168.973 469.835 170.478 468.042 171.801C464.714 174.258 461.16 175.711 456.973 174.976Q456.205 174.838 455.455 174.622Q454.705 174.407 453.981 174.115Q453.257 173.823 452.567 173.459Q451.877 173.094 451.227 172.661Q450.578 172.227 449.977 171.729Q449.376 171.232 448.829 170.675Q448.282 170.118 447.795 169.508Q447.309 168.898 446.887 168.241Q446.468 167.589 446.118 166.897Q445.769 166.205 445.494 165.481Q445.218 164.757 445.019 164.007Q444.821 163.258 444.701 162.493Q444.581 161.727 444.541 160.953Q444.502 160.179 444.543 159.405Q444.584 158.631 444.705 157.865Q444.826 157.1 445.026 156.351C445.924 152.969 447.996 150.311 451.105 148.699C454.832 146.768 459.908 146.061 463.941 147.373C467.781 148.623 470.246 151.518 472.019 155.009Q479.402 154.939 486.771 155.388C487.786 146.611 488.365 137.788 489.537 129.029C487.579 128.4 485.661 127.71 483.913 126.606Q483.466 126.329 483.034 126.03Q482.602 125.73 482.187 125.409Q481.771 125.087 481.373 124.745Q480.974 124.402 480.594 124.039Q480.214 123.676 479.853 123.294Q479.493 122.912 479.152 122.511Q478.812 122.111 478.493 121.693Q478.174 121.276 477.877 120.842Q477.58 120.408 477.307 119.96Q477.033 119.511 476.782 119.049Q476.532 118.587 476.306 118.113Q476.08 117.638 475.879 117.153Q475.679 116.667 475.503 116.172Q475.328 115.676 475.178 115.172Q475.029 114.668 474.906 114.158Q474.783 113.647 474.687 113.13C473.718 107.631 475.053 101.587 478.335 97.0593C481.617 92.5326 486.108 90.3084 491.501 89.3359Z"/>
	<path fill="#010216" d="M670.538 614.239C671.817 613.622 672.66 612.895 673.676 611.934L674.069 611.558L674.689 611.829L675.337 614.804L675.411 616.828L674.794 617.334C673.147 616.712 671.853 615.382 670.538 614.239Z"/>
	<path fill="#FBFCFC" d="M484.826 109.421C484.893 108.225 485.125 106.915 485.607 105.811C486.325 104.168 487.976 101.45 489.766 100.828C490.392 100.611 490.788 100.936 491.361 101.161C492.405 102.631 492.107 104.405 492.076 106.126C489.66 106.836 487.041 109.022 484.826 109.421Z"/>
	<path fill="#FBFCFC" d="M509.62 206.375C511.23 206.542 511.574 206.344 512.705 207.573C513.747 210.726 513.158 213.976 512.68 217.193C511.727 216.726 510.449 216.355 509.854 215.455C508.211 212.973 509.255 209.155 509.62 206.375Z"/>
	<path fill="#9BBDDB" d="M517.11 737.876C518.331 737.922 519.657 737.953 520.752 738.578C521.688 739.113 522.294 739.845 522.396 740.94C522.54 742.499 521.353 744.007 520.539 745.236C519.294 745.27 517.967 745.382 516.927 744.528C515.969 743.74 515.452 742.776 515.417 741.534C515.373 739.962 516.197 739.012 517.11 737.876Z"/>
	<path fill="#80A6C1" d="M525.027 716.589C529.05 718.892 535.519 715.476 539.857 717.463C539.045 718.063 538.125 718.627 537.458 719.385C533.554 720.623 529.102 720.788 525.024 721.029L525.027 716.589Z"/>
	<path fill="#9BBDDB" d="M502.486 737.532C503.427 737.616 504.027 737.424 504.713 738.157C505.71 739.222 505.914 740.36 505.749 741.779C505.558 743.429 504.65 744.725 503.324 745.666C502.24 745.867 501.662 746.022 500.659 745.34C499.31 744.422 498.393 742.384 497.757 740.937C499.171 739.296 500.558 738.488 502.486 737.532Z"/>
	<path fill="#83200D" d="M494.934 202.463C494.907 205.744 493.957 213.222 495.382 215.939L495.772 215.653C498.248 212.945 499.665 209.182 501.523 206.012C501.496 209.927 502.5 215.636 501.33 219.278C500.972 220.389 500.809 220.481 499.835 220.983C497.552 220.178 497.377 220.119 495.154 220.924C493.544 218.648 494.446 205.668 494.934 202.463Z"/>
	<path fill="#B44725" d="M484.826 109.421C487.041 109.022 489.66 106.836 492.076 106.126C492.113 110.043 492.709 114.617 490.876 118.205L489.959 118.743C487.749 118.045 486.79 116.264 485.78 114.263C484.945 112.611 484.743 111.244 484.826 109.421Z"/>
	<path fill="#9BBDDB" d="M504.01 716.713Q511.412 716.98 518.819 717.055C518.877 718.392 518.86 719.739 519.837 720.807C519.992 720.976 520.205 721.083 520.389 721.221C514.579 722.394 507.673 721.98 501.721 722.034L503.458 721.27C504.311 719.653 504.053 718.52 504.01 716.713Z"/>
	<path fill="#010216" d="M491.608 735.499C491.662 735.201 491.671 734.89 491.77 734.604C492.253 733.209 493.146 732.561 494.443 732.003C497.035 730.888 500.486 731.111 503.032 732.169C502.697 733.479 502.253 734.286 502.678 735.604L502.848 734.829L503.227 736.589C502.657 737.456 502.967 737.203 502.486 737.532C500.558 738.488 499.171 739.296 497.757 740.937Q495.68 741.908 493.585 742.841L491.608 735.499Z"/>
	<path fill="#A83B08" d="M530.101 101.356L530.681 100.425C532.031 100.492 532.934 101.498 533.841 102.482C535.46 104.237 536.517 106.309 537.388 108.506C537.724 111.269 536.881 113.332 535.62 115.76C534.814 117.313 534.143 118.639 532.395 119.213L531.493 118.753C529.045 114.472 530.036 106.206 530.101 101.356Z"/>
	<path fill="#FBFCFC" d="M530.101 101.356L530.681 100.425C532.031 100.492 532.934 101.498 533.841 102.482C535.46 104.237 536.517 106.309 537.388 108.506C536.097 107.991 534.952 107.522 533.542 107.512C532.634 107.506 531.864 107.441 530.964 107.26C529.981 105.687 530.189 103.179 530.101 101.356Z"/>
	<path fill="#9BBDDB" d="M419.826 771.863C425.399 772.081 431.4 772.967 436.524 775.267L436.943 776.217C437.103 776.277 437.265 776.334 437.425 776.397C439.273 777.117 440.459 777.881 441.19 779.794C441.489 780.579 441.181 780.894 440.918 781.64C439.474 782.624 438.637 783.113 436.877 783.228C434.517 782.635 432.225 781.985 429.917 781.207C427.675 777.562 422.951 774.821 419.826 771.863Z"/>
	<path fill="#F2A26D" d="M498.271 149.22L502.999 150.885C502.728 154.857 502.629 158.848 502.466 162.826C501.927 167.888 500.637 171.551 498.648 176.202C498.315 174.118 498.292 173.627 496.56 172.362C495.962 165.102 497.58 156.53 498.271 149.22Z"/>
	<path fill="#83200D" d="M514.035 106.985C516.197 109.646 518.054 111.519 521.116 113.173Q521.255 121.464 520.505 129.722C520.344 131.381 520.307 133.401 518.966 134.501C518.822 134.428 518.665 134.376 518.532 134.283C514.507 131.461 514.4 114.907 513.931 109.9L514.035 106.985Z"/>
	<path fill="#83200D" d="M505.228 110.934C506.795 109.734 507.918 107.986 509.101 106.421L508.962 111.125C508.49 117.009 507.17 128.764 504.024 133.569L503.155 133.942C501.701 132.687 501.614 130.171 501.466 128.376C501.087 123.788 501.018 118.473 501.423 113.893C502.742 112.952 503.989 111.978 505.228 110.934Z"/>
	<path fill="#FBFCFC" d="M502.27 90.6139C502.34 89.5348 502.43 88.4722 502.585 87.4012C502.918 85.0957 503.144 83.172 505.109 81.6766C506.516 81.3753 507.042 81.448 508.356 82.029L507.134 89.6224C506.506 96.7122 506.083 103.871 505.228 110.934C503.989 111.978 502.742 112.952 501.423 113.893C501.409 106.188 501.034 98.2437 502.27 90.6139Z"/>
	<path fill="#FBFCFC" d="M502.27 90.6139C502.34 89.5348 502.43 88.4722 502.585 87.4012C502.918 85.0957 503.144 83.172 505.109 81.6766C506.516 81.3753 507.042 81.448 508.356 82.029L507.134 89.6224L505.809 90.5267C505.929 88.6301 506.134 86.9609 506.643 85.1275C506.825 84.4721 506.784 84.7647 506.775 84.1139C505.654 84.3228 505.874 84.2877 505.264 85.1603C503.916 87.0891 503.112 89.233 502.693 91.5358L502.27 90.6139Z"/>
	<path fill="#CC5929" d="M508.356 82.029C508.991 83.5631 509.689 85.0564 509.987 86.699L510.821 89.1556C511.862 89.1109 512.344 88.9068 513.287 88.5085L513.627 90.0332C513.27 95.6755 513.628 101.355 514.035 106.985L513.931 109.9C513.116 108.613 513.033 108.35 511.668 107.727C510.576 108.164 510.056 108.325 509.494 109.461C509.292 109.869 509.089 110.668 508.962 111.125L509.101 106.421C507.918 107.986 506.795 109.734 505.228 110.934C506.083 103.871 506.506 96.7122 507.134 89.6224L508.356 82.029Z"/>
	<path fill="#310202" d="M509.987 86.699L510.821 89.1556C511.862 89.1109 512.344 88.9068 513.287 88.5085L513.627 90.0332C513.27 95.6755 513.628 101.355 514.035 106.985L513.931 109.9C513.116 108.613 513.033 108.35 511.668 107.727C510.576 108.164 510.056 108.325 509.494 109.461C509.292 109.869 509.089 110.668 508.962 111.125L509.101 106.421C511.423 100.809 510.249 92.682 509.987 86.699Z"/>
	<path fill="#83200D" d="M518.612 566.8C519.045 571.85 518.978 576.933 519.008 581.998C513.995 581.923 508.971 582.023 503.958 582.049L503.912 570.995Q511.16 570.939 518.406 570.799L518.612 566.8Z"/>
	<path fill="#83200D" d="M484.603 571.284C487.976 572.481 493.321 572.153 496.819 571.433C497.854 570.337 497.723 568.788 497.926 567.313C497.964 572.496 497.939 577.691 498.052 582.872C494.515 583.434 487.125 585.631 483.807 584.669L484.603 571.284Z"/>
	<path fill="#A83B08" d="M595.708 763L596.398 764.102L596.94 764.024C598.141 765.984 597.896 767.925 598.011 770.147C597.03 782.894 591.639 795.747 584.171 806.006C585.402 801.501 587.245 797.132 588.591 792.647C591.449 783.121 592.235 773.472 592.374 763.568L592.527 763.157C594.037 763.437 594.324 763.601 595.708 763Z"/>
	<defs>
		<linearGradient id="gradient_0" gradientUnits="userSpaceOnUse" x1="514.66327" y1="856.19263" x2="498.83527" y2="824.30444">
			<stop offset="0" stop-color="#80A6C1"/>
			<stop offset="1" stop-color="#9BBDDB"/>
		</linearGradient>
	</defs>
	<path fill="url(#gradient_0)" d="M507.976 814.49L508.391 815.101C508.673 821.036 510.845 858.006 509.013 860.474C507.854 860.48 506.611 860.726 505.604 860.136C505.156 852.967 505.554 845.76 505.372 838.579C505.19 831.436 504.513 824.291 504.397 817.152L507.976 814.49Z"/>
	<path fill="#506D93" d="M392.992 813.501C408.566 828.827 425.301 839.88 445.504 848.3C453.653 851.696 462.309 853.984 469.884 858.615C469.193 858.482 468.519 858.345 467.838 858.168C442.823 851.662 406.509 836.8 392.992 813.501Z"/>
	<path fill="#506D93" d="M526.132 291.797Q525.365 272.805 524.403 253.822C524.176 249.274 523.298 244.269 523.362 239.776C523.378 238.602 523.475 238.522 524.257 237.72C525.504 237.557 525.606 237.359 526.775 237.964C527.963 244.59 527.784 251.862 528.115 258.6C528.595 268.353 529.381 278.127 529.551 287.89C529.297 289.983 529.308 292.842 528.293 294.689L527.43 294.597C527.343 294.385 527.259 294.171 527.17 293.959C526.856 293.214 526.506 292.512 526.132 291.797Z"/>
	<path fill="#DD6B32" d="M516.06 81.0358C517.739 81.6832 518.541 82.3493 519.227 84.0552C521.917 90.7518 521.03 105.723 521.116 113.173C518.054 111.519 516.197 109.646 514.035 106.985C513.628 101.355 513.27 95.6755 513.627 90.0332L513.287 88.5085C512.87 86.9589 512.346 84.7892 513.07 83.2738C513.727 81.9014 514.753 81.5414 516.06 81.0358Z"/>
	<path fill="#FBFCFC" d="M513.287 88.5085C512.87 86.9589 512.346 84.7892 513.07 83.2738C513.727 81.9014 514.753 81.5414 516.06 81.0358C516.04 83.6339 515.856 87.7003 513.983 89.7167C513.875 89.833 513.746 89.9277 513.627 90.0332L513.287 88.5085Z"/>
	<path fill="#294869" d="M493.776 743.25C495.689 743.431 497.568 744.047 498.891 745.526C504.764 752.094 512.339 804.623 509.53 812.71C509.24 813.544 509.31 812.943 508.935 813.663C508.806 813.911 508.497 814.803 508.391 815.101L507.976 814.49C507.736 796.926 505.411 778.968 500.352 762.12C498.435 755.731 495.765 749.614 493.776 743.25Z"/>
	<path fill="#DD6B32" d="M498.648 176.202C500.637 171.551 501.927 167.888 502.466 162.826C502.786 177.156 502.24 191.696 501.523 206.012C499.665 209.182 498.248 212.945 495.772 215.653L495.382 215.939C493.957 213.222 494.907 205.744 494.934 202.463C495.115 194.961 495.7 187.434 496.12 179.94C496.084 177.441 496.399 174.86 496.56 172.362C498.292 173.627 498.315 174.118 498.648 176.202Z"/>
	<path fill="#FCC590" d="M496.56 172.362C498.292 173.627 498.315 174.118 498.648 176.202C498.542 179.167 498.612 182.245 498.078 185.167C497.988 183.693 498.198 182.544 497.299 181.334L497.407 181.812L496.12 179.94C496.084 177.441 496.399 174.86 496.56 172.362Z"/>
	<path fill="#FCC590" d="M496.12 179.94L497.407 181.812L497.299 181.334C498.198 182.544 497.988 183.693 498.078 185.167C497.962 194.914 498.537 206.252 495.772 215.653L495.382 215.939C493.957 213.222 494.907 205.744 494.934 202.463C495.115 194.961 495.7 187.434 496.12 179.94Z"/>
	<path fill="#294869" d="M420.228 794.819C424.479 797.724 432.08 806.853 436.896 811.013C446.665 819.452 475.469 837.563 479.672 847.54C473.973 842.513 467.409 838.753 460.994 834.731C444.704 824.517 428.369 812.859 420.228 794.819Z"/>
	<path fill="#294869" d="M439.629 796.075C445.072 797.721 450.43 800.411 455.098 803.652C464.37 810.09 475.651 821.849 477.678 833.423C474.098 829.662 470.387 826.218 466.355 822.945C457.583 815.826 443.243 807.415 439.629 796.075Z"/>
	<path fill="#294869" d="M537.458 719.385C538.125 718.627 539.045 718.063 539.857 717.463C536.072 735.304 529.837 752.368 525.372 770.012Q523.255 778.603 521.805 787.331Q520.356 796.059 519.582 804.873Q518.577 815.409 518.176 825.986C518.017 831.468 518.418 857.472 517.536 860.249C517.438 860.556 517.186 860.79 517.011 861.06L516.205 860.824C514.491 856.674 515.422 840.785 515.621 835.831C516.597 811.55 517.618 787.269 524.186 763.698C527.2 752.881 530.951 742.21 534.133 731.427C535.304 727.462 536.766 723.461 537.458 719.385Z"/>
	<path fill="#294869" d="M404.83 799.334C408.128 801.806 410.905 806.437 413.764 809.516C418.907 815.053 425.244 820.261 431.285 824.796Q440.181 831.525 449.883 837.03C461.725 843.801 475.869 850.316 485.652 860.048C480.735 858.438 475.954 854.928 471.343 852.549C466.957 850.286 462.26 848.564 457.74 846.584C436.303 837.191 413.611 821.889 404.83 799.334Z"/>
	<path fill="#DD6B32" d="M523.919 149.605C525.517 156.043 525.118 164.011 525.484 170.702C526.365 186.799 528.471 204.849 527.145 220.757C525.915 221.539 525.226 221.243 523.8 221.128L521.92 220.56C520.257 215.355 518.704 158.402 519.302 151.272C520.37 150.086 522.397 149.929 523.919 149.605Z"/>
	<path fill="#DD6B32" d="M474.945 396.285C472.28 426.92 472.067 457.749 469.73 488.419C469.187 495.547 469.549 505.391 468.017 512.116C467.774 507.5 467.266 502.923 467.225 498.294C467.078 481.687 468.397 465.043 467.928 448.41C468.036 433.827 468.219 418.733 469.874 404.247C466.967 405.535 464.2 407.033 461.419 408.569L461.34 407.881C461.916 407.297 462.31 407.001 463.064 406.629C463.293 406.515 463.529 406.415 463.761 406.308C463.422 405.107 462.562 404.634 461.653 403.815C460.571 404.171 459.552 404.493 458.425 404.671L457.523 404.808C461.836 401.621 469.698 397.384 474.945 396.285Z"/>
	<path fill="#B44725" d="M623.066 722.886C623.266 724.639 623.45 726.39 623.743 728.13C625.199 759.386 625.46 786.199 602.949 810.843C598.831 815.351 594.31 819.546 589.74 823.59L590.071 823.088C593.462 818.043 597.679 813.578 601.293 808.688C612.127 794.029 616.869 778.544 618.2 760.477C618.777 752.648 619.217 743.581 617.395 735.866C617.342 735.642 617.263 735.424 617.197 735.204C618.818 734.13 620.836 731.493 621.737 729.768C621.831 729.586 621.917 729.4 622.009 729.217C623.089 727.068 623.074 725.239 623.066 722.886Z"/>
	<path fill="#A83B08" d="M543.608 772.862L544.99 773.381C550.738 772.419 560.454 754.765 564.809 749.755C564.931 749.615 565.056 749.478 565.179 749.339C565.024 752.345 564.918 755.49 564.179 758.414C562.72 759.625 560.114 762.588 559.753 764.473C559.725 764.618 559.735 764.769 559.727 764.917C556.784 773.267 554.472 782.079 551.029 790.217C547.616 798.286 542.852 805.497 537.877 812.651C535.492 816.08 533.288 819.771 530.378 822.779L529.681 822.874C530.013 816.879 537.355 805.056 539.903 798.935Q543.386 790.42 545.312 781.424C545.701 779.568 546.539 776.68 545.665 774.951L544.96 774.563C544.212 774.373 543.984 774.22 543.383 773.773L543.608 772.862Z"/>
	<path fill="#FBFCFC" d="M375.351 787.215C376.908 785.824 378.502 784.451 380.161 783.184C389.966 775.691 407.496 770.079 419.826 771.863C422.951 774.821 427.675 777.562 429.917 781.207C427.992 780.902 426.059 780.592 424.116 780.421C408.488 779.044 391.195 785.313 379.296 795.28C378.157 792.496 376.756 789.872 375.351 787.215Z"/>
	<defs>
		<linearGradient id="gradient_1" gradientUnits="userSpaceOnUse" x1="480.29892" y1="813.0614" x2="452.85223" y2="822.36987">
			<stop offset="0" stop-color="#506D93"/>
			<stop offset="1" stop-color="#80A6C1"/>
		</linearGradient>
	</defs>
	<path fill="url(#gradient_1)" d="M436.524 775.267C454.351 780.177 470.527 795.979 479.494 811.67C487.372 825.453 493.443 847.201 489.181 862.968L489.002 862.308C487.135 855.203 486.991 847.691 485.399 840.497C480.784 819.628 467.954 800.143 449.488 789.004C445.484 786.589 441.278 784.778 436.877 783.228C438.637 783.113 439.474 782.624 440.918 781.64C441.181 780.894 441.489 780.579 441.19 779.794C440.459 777.881 439.273 777.117 437.425 776.397C437.265 776.334 437.103 776.277 436.943 776.217L436.524 775.267Z"/>
	<path fill="#A83B08" d="M572.015 760.844L572.038 767.308C571.94 767.577 571.838 767.844 571.743 768.114C569.138 775.49 569.132 783.888 566.533 791.464C561.296 806.725 548.68 819.691 538.66 832.079C535.282 836.256 532.216 840.763 528.675 844.789C528.065 843.835 528.137 843.694 528.376 842.614C530.237 834.183 544.432 816.599 549.701 808.131Q551.484 805.318 553.05 802.38Q554.616 799.441 555.957 796.392Q557.297 793.344 558.405 790.204Q559.512 787.063 560.38 783.848C561.399 780.12 562.801 775.391 562.302 771.519L562.697 769.605C562.829 770.481 563.061 771.192 563.344 772.026L564.213 772.023C567.421 769.241 569.756 764.415 572.015 760.844Z"/>
	<defs>
		<linearGradient id="gradient_2" gradientUnits="userSpaceOnUse" x1="576.59039" y1="804.28729" x2="552.6983" y2="797.74945">
			<stop offset="0" stop-color="#B44725"/>
			<stop offset="1" stop-color="#A83B08"/>
		</linearGradient>
	</defs>
	<path fill="url(#gradient_2)" d="M576.617 749.017L577.316 749.507C577.81 755.502 577.149 761.637 578.151 767.569C578.263 768.228 578.371 768.883 578.496 769.539C580.57 765.163 582.886 759.778 585.776 755.927L586.066 756.31C582.485 806.368 575.659 812.708 539.251 844.243Q536.228 846.874 533.169 849.464L533.568 848.857C537.166 843.434 541.772 838.598 546.075 833.732C565.443 811.826 577.051 799.749 577.393 768.744C576.345 767.11 575.804 768.312 575.51 765.996C575.218 764.954 575.41 764.924 574.455 764.279C573.124 764.909 572.64 766.034 572.038 767.308L572.015 760.844C573.789 757.01 574.737 752.861 576.617 749.017Z"/>
	<path fill="#310202" d="M576.617 749.017C577.543 754.1 577.876 761.282 575.51 765.996C575.218 764.954 575.41 764.924 574.455 764.279C573.124 764.909 572.64 766.034 572.038 767.308L572.015 760.844C573.789 757.01 574.737 752.861 576.617 749.017Z"/>
	<path fill="#B44725" d="M611.403 740.519C611.512 744.374 611.407 748.261 611.585 752.106C611.021 783.21 600.86 803.943 578.603 825.444C571.352 832.449 539.316 860.084 530.892 860.917L529.754 860.475C530.031 858.963 534.85 855.628 536.2 854.517C552.48 841.115 578.497 822.764 590.579 806.151Q591.937 804.313 593.183 802.398Q594.43 800.482 595.559 798.496Q596.689 796.51 597.698 794.459Q598.707 792.409 599.591 790.302Q600.476 788.195 601.233 786.039Q601.991 783.883 602.618 781.686Q603.245 779.488 603.74 777.257Q604.235 775.026 604.596 772.77C605.341 768.089 606.797 761.16 605.593 756.549C605.767 756.432 605.95 756.327 606.116 756.199C608.837 754.096 608.947 744.874 609.282 741.417L610.226 740.355L611.403 740.519Z"/>
	<path fill="#9BBDDB" d="M518.419 877.487C549.698 876.744 571.075 872.421 599.89 860.104C597.699 864.134 589.618 869.602 588.841 872.306L589.418 872.831C586.615 874.63 582.416 875.751 579.262 876.795Q575.515 877.999 571.723 879.051Q567.93 880.104 564.099 881.004Q560.267 881.903 556.403 882.649Q552.538 883.395 548.647 883.985Q544.756 884.575 540.844 885.009Q536.932 885.443 533.006 885.719Q529.08 885.996 525.146 886.115Q521.213 886.234 517.277 886.196C517.725 883.306 518.05 880.389 518.419 877.487Z"/>
	<path fill="#B44725" d="M628.348 724.223C629.517 724.231 630.425 724.121 631.554 723.819C633.02 722.665 633.29 720.845 633.777 719.13L633.821 719.93C634.27 727.433 636.108 734.777 636.671 742.282C638.658 768.77 632.798 793.061 615.123 813.332C602.159 828.199 584.721 837.726 567.243 846.261C575.292 839.466 584.47 834.696 592.819 828.389C613.434 812.818 628.675 789.906 630.977 763.866C632.075 751.45 632.135 736.158 628.348 724.223Z"/>
	<path fill="#9BBDDB" d="M415.121 855.645C445.723 870.651 470.317 876.986 504.273 877.464C504.693 880.399 505.039 883.366 505.552 886.285C482.854 885.777 454.276 882.366 433.507 872.813C433.61 872.518 433.849 871.51 433.701 871.233C431.619 867.358 417.447 862.332 415.121 855.645Z"/>
	<defs>
		<linearGradient id="gradient_3" gradientUnits="userSpaceOnUse" x1="593.87012" y1="516.01721" x2="475.76996" y2="326.70734">
			<stop offset="0" stop-color="#294869"/>
			<stop offset="1" stop-color="#506D93"/>
		</linearGradient>
	</defs>
	<path fill="url(#gradient_3)" d="M529.551 287.89C531.276 300.579 531.1 313.979 531.743 326.785L535.443 400.751L540.275 498.797L541.509 527.032C541.81 532.873 542.4 538.79 542.43 544.629C542.44 546.479 542.259 548.372 541.29 549.982L540.656 549.975C539.316 547.469 539.199 544.315 538.974 541.523C537.949 528.781 537.684 515.936 537.013 503.166L532.77 416.843L526.132 291.797C526.506 292.512 526.856 293.214 527.17 293.959C527.259 294.171 527.343 294.385 527.43 294.597L528.293 294.689C529.308 292.842 529.297 289.983 529.551 287.89Z"/>
	<path fill="#A83B08" d="M542.448 666.653C543.954 666.016 545.453 665.408 546.995 664.861L547.57 665.258L547.71 666.041L548.041 665.542L548.62 665.253C548.616 673.227 546.592 681.015 546.118 688.923C550.68 693.525 554.458 698.148 557.294 704.01C556.355 722.068 551.018 757.008 543.608 772.862L543.383 773.773C543.984 774.22 544.212 774.373 544.96 774.563C537.319 781.972 533.303 799.904 528.848 810.028C528.877 791.233 534.053 772.064 539.402 754.174C544.285 737.838 549.901 720.844 550.085 703.646C547.679 703.527 545.258 703.526 542.849 703.475C540.775 703.661 539.021 703.789 536.971 703.378C536.427 702.093 540.09 681.553 540.539 678.486C541.91 675.905 541.966 670.098 542.363 667.027L542.448 666.653Z"/>
	<path fill="#FBFCFC" d="M542.448 666.653C543.954 666.016 545.453 665.408 546.995 664.861L547.57 665.258L547.71 666.041C545.967 678.393 543.967 691.058 542.849 703.475C540.775 703.661 539.021 703.789 536.971 703.378C536.427 702.093 540.09 681.553 540.539 678.486C541.91 675.905 541.966 670.098 542.363 667.027L542.448 666.653Z"/>
	<path fill="#A83B08" d="M479.166 771.94C478.816 765.788 475.642 758.891 473.767 752.968C470.034 741.174 464.284 717.053 466.114 704.854C467.197 697.631 472.129 691.173 477.925 686.952Q479.37 695.421 480.618 703.921C477.978 703.693 475.625 704.194 473.057 704.704C474.082 731.881 485.461 755.769 491.575 781.75C494.043 792.237 494.182 803.215 495.016 813.918C492.975 809.713 491.147 805.471 489.988 800.928C487.082 789.535 487.7 783.851 480.283 773.675L479.645 773.976C479.999 780.953 482.834 788.782 485.083 795.37C479.511 788.765 474.023 782.526 467.5 776.824L460.856 772.523L461.842 770.363C461.934 769.528 461.956 769.906 461.767 769.012C460.887 764.848 458.277 753.074 459.493 749.459L460.235 750.368C461.813 751.804 463.172 753.257 464.165 755.17C468.664 761.48 473.295 766.845 479.166 771.94Z"/>
	<path fill="#CC5929" d="M460.235 750.368C461.813 751.804 463.172 753.257 464.165 755.17C463.288 758.417 467.962 767.575 466.674 773.123C463.093 766.74 461.456 757.513 460.235 750.368Z"/>
	<path fill="#9BBDDB" d="M517.934 501.049C516.94 493.337 517.496 485.054 517.355 477.247L516.492 431.221Q515.275 360.741 514.974 290.252L514.55 250.835C514.534 247.052 513.825 242.301 514.592 238.655C515.513 237.55 515.595 237.634 517.029 237.369C518.035 238.485 518.011 240.242 518.109 241.679C518.796 251.687 518.684 261.876 518.944 271.908L520.606 328.101Q522.346 379.29 523.08 430.504C523.485 451.531 524.313 472.71 523.946 493.734C523.389 490.467 523.569 485.71 522.235 482.808L518.9 482.859C517.604 488.759 518.696 495.093 517.934 501.049Z"/>
	<path fill="#FBFCFC" d="M480.034 551.082Q484.365 445.396 490.104 339.777C490.484 331.4 493.7 240.251 494.639 238.296C494.77 238.022 495.019 237.823 495.209 237.586C496.614 237.576 497.568 237.339 498.805 238.069C499.778 245.738 498.673 254.423 498.505 262.195C498.006 285.401 496.599 308.624 496.46 331.828C496.701 334.878 496.032 339.945 497.04 342.595Q498.197 342.39 499.343 342.133L500.599 343.116L501.067 342.898C501.108 341.087 500.732 335.908 501.854 334.644C502.056 355.299 500.9 376.084 500.518 396.749L499.576 443.417C499.416 454.664 499.527 465.913 499.048 477.153L497.696 477.885C497.67 477.66 497.647 477.435 497.618 477.21C497.507 476.327 497.59 476.674 497.332 475.949C494.062 487.514 493.793 499.596 493.178 511.534C492.507 524.579 492.03 537.516 491.952 550.576C489.974 550.519 487.884 550.616 485.98 550.034C484 550.122 481.974 550.682 480.034 551.082Z"/>
	<path fill="#294869" d="M485.98 550.034C487.513 532.168 487.615 513.949 488.396 496.014L493.386 384.879C494.235 367.925 494.433 348.532 496.46 331.828C496.701 334.878 496.032 339.945 497.04 342.595Q498.197 342.39 499.343 342.133L500.599 343.116L501.067 342.898C501.108 341.087 500.732 335.908 501.854 334.644C502.056 355.299 500.9 376.084 500.518 396.749L499.576 443.417C499.416 454.664 499.527 465.913 499.048 477.153L497.696 477.885C497.67 477.66 497.647 477.435 497.618 477.21C497.507 476.327 497.59 476.674 497.332 475.949C494.062 487.514 493.793 499.596 493.178 511.534C492.507 524.579 492.03 537.516 491.952 550.576C489.974 550.519 487.884 550.616 485.98 550.034Z"/>
	<path fill="#FBFCFC" d="M517.934 501.049C518.696 495.093 517.604 488.759 518.9 482.859L522.235 482.808C523.569 485.71 523.389 490.467 523.946 493.734C524.524 519.786 525.367 546.084 524.993 572.132C529.507 572.178 533.996 572.084 538.43 571.181C538.645 575.962 539.141 580.65 539.76 585.394C540.53 591.324 540.61 597.32 541.341 603.24C537.875 606.139 535.098 609.305 534.641 614.042C534.379 616.764 535.21 619.613 536.964 621.725C538.069 623.056 539.418 623.979 540.877 624.875C540.406 628.277 541.366 632.66 541.65 636.144C541.97 640.076 542.077 643.944 542.012 647.887C544.444 648.869 546.958 649.297 549.52 649.789L550.304 650.008C550.774 653.89 550.2 657.984 549.806 661.863C549.41 662.99 548.982 664.115 548.62 665.253L548.041 665.542L547.71 666.041L547.57 665.258L546.995 664.861C545.453 665.408 543.954 666.016 542.448 666.653L542.363 667.027C541.966 670.098 541.91 675.905 540.539 678.486C537.901 682.674 537.206 689.126 534.676 693.938C531.619 694.193 528.54 694.527 525.476 694.641C525.416 697.081 525.496 699.62 525.109 702.029L525.027 716.589L525.024 721.029L520.389 721.221C520.205 721.083 519.992 720.976 519.837 720.807C518.86 719.739 518.877 718.392 518.819 717.055C519.208 712.638 519.089 708.101 519.167 703.665Q519.109 699.289 519.177 694.913C520.195 685.312 519.392 674.996 519.221 665.346C519.59 659.267 519.176 652.932 519.12 646.828C519.783 638.127 519.414 629.332 519.369 620.615Q519.401 601.305 519.008 581.998C518.978 576.933 519.045 571.85 518.612 566.8C518.714 544.88 517.913 522.966 517.934 501.049Z"/>
	<path fill="#DD6B32" d="M525.036 665.02C529.248 664.943 537.567 663.513 541.252 665.454C541.368 665.653 541.482 665.854 541.601 666.052C542.054 666.808 541.828 666.54 542.363 667.027C541.966 670.098 541.91 675.905 540.539 678.486C537.901 682.674 537.206 689.126 534.676 693.938C531.619 694.193 528.54 694.527 525.476 694.641C525.416 697.081 525.496 699.62 525.109 702.029Q524.944 683.524 525.036 665.02Z"/>
	<path fill="#010216" d="M525.027 647.251C530.302 647.267 536.925 646.607 542.012 647.887C544.444 648.869 546.958 649.297 549.52 649.789L550.304 650.008C550.774 653.89 550.2 657.984 549.806 661.863C549.41 662.99 548.982 664.115 548.62 665.253L548.041 665.542L547.71 666.041L547.57 665.258L546.995 664.861C545.453 665.408 543.954 666.016 542.448 666.653L542.363 667.027C541.828 666.54 542.054 666.808 541.601 666.052C541.482 665.854 541.368 665.653 541.252 665.454C537.567 663.513 529.248 664.943 525.036 665.02L525.027 647.251Z"/>
	<path fill="#80A6C1" d="M542.448 666.653C542.413 665.987 542.386 665.387 542.453 664.722C542.774 661.534 543.968 652.216 546.625 650.204C547.899 650.343 548.069 650.414 549.087 651.193C550.833 655.158 548.535 660.831 548.089 665.051L548.041 665.542L547.71 666.041L547.57 665.258L546.995 664.861C545.453 665.408 543.954 666.016 542.448 666.653Z"/>
	<path fill="#DD6B32" d="M524.993 572.132C529.507 572.178 533.996 572.084 538.43 571.181C538.645 575.962 539.141 580.65 539.76 585.394C540.53 591.324 540.61 597.32 541.341 603.24C537.875 606.139 535.098 609.305 534.641 614.042C534.379 616.764 535.21 619.613 536.964 621.725C538.069 623.056 539.418 623.979 540.877 624.875C540.406 628.277 541.366 632.66 541.65 636.144C541.97 640.076 542.077 643.944 542.012 647.887C536.925 646.607 530.302 647.267 525.027 647.251Q524.758 615.002 524.98 582.754L524.993 572.132Z"/>
	<path fill="#83200D" d="M524.993 572.132C529.507 572.178 533.996 572.084 538.43 571.181C538.645 575.962 539.141 580.65 539.76 585.394C535.004 583.847 529.944 583.197 524.98 582.754L524.993 572.132Z"/>
	<path fill="#DD6B32" d="M471.707 601.367L476.456 601.615C478.576 602.429 480.472 603.295 482.406 604.489C484.967 607.374 487.808 611.017 487.51 615.117C487.237 618.864 485.063 621.689 482.414 624.162C479.927 624.927 478.142 624.879 475.591 624.43C475.538 628.361 475.885 645.728 473.83 648.089L476.044 649.273C478.596 654.148 479.921 659.92 480.95 665.295C481.661 674.557 482.829 684.329 484.721 693.42C485.265 696.359 486.616 700.344 485.495 703.167C483.91 704.333 482.55 704.047 480.618 703.921Q479.37 695.421 477.925 686.952C472.129 691.173 467.197 697.631 466.114 704.854C464.284 717.053 470.034 741.174 473.767 752.968C475.642 758.891 478.816 765.788 479.166 771.94C473.295 766.845 468.664 761.48 464.165 755.17C463.172 753.257 461.813 751.804 460.235 750.368L459.493 749.459C458.277 753.074 460.887 764.848 461.767 769.012C461.956 769.906 461.934 769.528 461.842 770.363L460.856 772.523C455.388 769.463 450.111 766.839 444.183 764.755C440.271 763.343 436.154 762.384 432.141 761.295C432.052 760.529 431.836 759.794 431.651 759.047C431.345 757.265 431.145 755.48 430.947 753.683C429.742 748.908 431.523 743.17 431.766 738.25C432.211 729.25 432.334 720.246 432.84 711.244L430.284 711.618C427.017 711.663 424.051 711.605 420.874 710.75L420.139 710.552C417.747 710.718 415.94 710.73 414.083 712.407L413.747 712.128C413.54 710.996 413.206 709.888 412.909 708.777C412.28 707.873 412.559 708.072 411.763 707.557C410.954 707.035 410.32 707.476 409.429 707.682C409.43 704.854 408.403 702.204 408.781 699.393C408.734 698.191 408.157 696.611 407.867 695.417C407.903 693.868 407.901 692.273 408.082 690.734C408.494 687.223 410.589 683.592 413.386 681.433C415.433 679.853 418.1 678.9 420.7 679.372C424.215 680.01 427.268 682.726 429.213 685.567L429.379 686.118C430.237 687.334 431.006 688.582 431.77 689.859C431.931 688.602 432.06 687.319 432.602 686.16C435.843 679.221 436.699 665.641 438.26 657.553C439.354 651.88 441.107 646.427 442.69 640.883C443.563 637.825 443.982 634.457 446.063 631.969C446.892 626.178 448.136 620.946 450.264 615.492L451.811 613.325C454.198 609.951 456.86 607.244 460.405 605.069C461.302 604.519 462.173 603.941 463.052 603.362L466.828 601.952C468.423 601.649 470.09 601.541 471.707 601.367Z"/>
	<path fill="#FCC590" d="M457.624 726.102L459.034 726.784C459.733 727.851 460.023 728.801 460.337 730.045C461.21 733.5 461.802 737.926 459.908 741.072C458.463 738.896 457.272 736.458 456.635 733.916C455.896 730.972 456.08 728.698 457.624 726.102Z"/>
	<defs>
		<linearGradient id="gradient_4" gradientUnits="userSpaceOnUse" x1="455.89929" y1="771.83197" x2="443.06985" y2="750.11743">
			<stop offset="0" stop-color="#A83B08"/>
			<stop offset="1" stop-color="#CC5929"/>
		</linearGradient>
	</defs>
	<path fill="url(#gradient_4)" d="M443.853 748.546C444.047 747.363 444.185 746.181 444.322 744.991L444.495 745.013C444.941 745.838 445.355 746.676 445.77 747.518C447.358 747.569 446.677 746.327 447.966 745.733L448.259 746.982C450.191 755.472 451.013 763.779 459.003 768.862C459.949 769.464 460.794 769.957 461.842 770.363L460.856 772.523C455.388 769.463 450.111 766.839 444.183 764.755L444.422 763.051L443.877 762.76C444.406 758.141 443.988 753.195 443.853 748.546Z"/>
	<path fill="#CC5929" d="M443.853 748.546C444.047 747.363 444.185 746.181 444.322 744.991L444.495 745.013C444.941 745.838 445.355 746.676 445.77 747.518C447.358 747.569 446.677 746.327 447.966 745.733L448.259 746.982C447.105 748.375 446.503 749.831 445.768 751.468C444.07 755.249 444.781 759.097 444.422 763.051L443.877 762.76C444.406 758.141 443.988 753.195 443.853 748.546Z"/>
	<path fill="#F2A26D" d="M439.565 709.185C441.627 708.197 443.455 706.775 445.319 705.459C445.079 719.556 441.89 734.524 443.853 748.546C443.988 753.195 444.406 758.141 443.877 762.76C441.019 759.347 439.921 754.738 438.583 750.577C437.201 736.943 438.819 722.838 439.565 709.185Z"/>
	<path fill="#FBFCFC" d="M473.83 648.089L476.044 649.273C478.596 654.148 479.921 659.92 480.95 665.295C481.661 674.557 482.829 684.329 484.721 693.42C485.265 696.359 486.616 700.344 485.495 703.167C483.91 704.333 482.55 704.047 480.618 703.921Q479.37 695.421 477.925 686.952C477.364 674.266 472.021 660.751 473.83 648.089Z"/>
	<path fill="#DD6B32" d="M432.84 711.244C435.119 710.659 437.332 709.923 439.565 709.185C438.819 722.838 437.201 736.943 438.583 750.577C439.921 754.738 441.019 759.347 443.877 762.76L444.422 763.051L444.183 764.755C440.271 763.343 436.154 762.384 432.141 761.295C432.052 760.529 431.836 759.794 431.651 759.047C431.345 757.265 431.145 755.48 430.947 753.683C429.742 748.908 431.523 743.17 431.766 738.25C432.211 729.25 432.334 720.246 432.84 711.244Z"/>
	<path fill="#B44725" d="M431.022 744.952C433.301 747.046 435.989 748.894 438.583 750.577C439.921 754.738 441.019 759.347 443.877 762.76L444.422 763.051L444.183 764.755C440.271 763.343 436.154 762.384 432.141 761.295C432.052 760.529 431.836 759.794 431.651 759.047C431.345 757.265 431.145 755.48 430.947 753.683Q430.941 749.317 431.022 744.952Z"/>
	<path fill="#F2A26D" d="M467.376 613.091C468.345 615.007 466.47 671.137 465.823 677.843C465.386 682.36 464.58 686.672 463.147 690.982C461.924 694.662 460.533 699.074 457.225 701.351C455.604 701.66 454.144 701.461 452.524 701.285C451.749 700.636 451.346 700.19 450.903 699.279C463.289 682.705 460.501 659.549 460.429 640.052C460.41 634.839 460.167 629.421 461.069 624.269C461.895 619.549 463.342 615.894 467.376 613.091Z"/>
	<path fill="#010216" d="M471.707 601.367L476.456 601.615C478.576 602.429 480.472 603.295 482.406 604.489C484.967 607.374 487.808 611.017 487.51 615.117C487.237 618.864 485.063 621.689 482.414 624.162C479.927 624.927 478.142 624.879 475.591 624.43C474.94 623.903 474.288 623.376 473.673 622.807C470.819 620.164 471.734 615.656 471.537 612.122L470.56 611.546C469.363 611.842 468.418 612.463 467.376 613.091C463.342 615.894 461.895 619.549 461.069 624.269C460.167 629.421 460.41 634.839 460.429 640.052C460.501 659.549 463.289 682.705 450.903 699.279Q448.143 702.397 445.319 705.459C443.455 706.775 441.627 708.197 439.565 709.185C437.332 709.923 435.119 710.659 432.84 711.244L430.284 711.618C427.017 711.663 424.051 711.605 420.874 710.75L420.139 710.552C417.747 710.718 415.94 710.73 414.083 712.407L413.747 712.128C413.54 710.996 413.206 709.888 412.909 708.777C412.28 707.873 412.559 708.072 411.763 707.557C410.954 707.035 410.32 707.476 409.429 707.682C409.43 704.854 408.403 702.204 408.781 699.393C408.734 698.191 408.157 696.611 407.867 695.417C407.903 693.868 407.901 692.273 408.082 690.734C408.494 687.223 410.589 683.592 413.386 681.433C415.433 679.853 418.1 678.9 420.7 679.372C424.215 680.01 427.268 682.726 429.213 685.567L429.379 686.118C430.237 687.334 431.006 688.582 431.77 689.859C431.931 688.602 432.06 687.319 432.602 686.16C435.843 679.221 436.699 665.641 438.26 657.553C439.354 651.88 441.107 646.427 442.69 640.883C443.563 637.825 443.982 634.457 446.063 631.969C446.892 626.178 448.136 620.946 450.264 615.492L451.811 613.325C454.198 609.951 456.86 607.244 460.405 605.069C461.302 604.519 462.173 603.941 463.052 603.362L466.828 601.952C468.423 601.649 470.09 601.541 471.707 601.367Z"/>
	<path fill="#F2A26D" d="M414.355 707.004C416.241 708.328 418.049 709.555 420.139 710.552C417.747 710.718 415.94 710.73 414.083 712.407L413.747 712.128C413.54 710.996 413.206 709.888 412.909 708.777L414.355 707.004Z"/>
	<path fill="#DD6B32" d="M408.781 699.393C410.41 702.168 411.954 704.8 414.355 707.004L412.909 708.777C412.28 707.873 412.559 708.072 411.763 707.557C410.954 707.035 410.32 707.476 409.429 707.682C409.43 704.854 408.403 702.204 408.781 699.393Z"/>
	<path fill="#DD6B32" d="M446.063 631.969C446.06 645.942 448.562 686.809 438.242 696.462C436.259 698.317 431.931 700.859 429.13 700.698C428.285 700.65 428.338 700.404 427.851 699.803C428.296 693.852 430.722 693.179 429.379 686.118C430.237 687.334 431.006 688.582 431.77 689.859C431.931 688.602 432.06 687.319 432.602 686.16C435.843 679.221 436.699 665.641 438.26 657.553C439.354 651.88 441.107 646.427 442.69 640.883C443.563 637.825 443.982 634.457 446.063 631.969Z"/>
	<path fill="#FBFCFC" d="M403.386 543.931C405.325 538.339 407.01 532.801 407.63 526.89C408.563 517.983 407.287 509.062 406.173 500.235C402.728 472.945 401.294 451.798 416.775 427.292C430.16 406.105 451.056 392.754 475.326 387.354C475.103 390.318 475.061 393.314 474.945 396.285C469.698 397.384 461.836 401.621 457.523 404.808C439.841 413.928 423.044 432.68 416.923 451.701C409.913 473.486 414.613 495.392 415.584 517.604C415.887 524.537 416.046 531.713 414.725 538.552C423.899 542.851 432.065 553.36 435.538 562.708Q435.968 563.837 436.297 564.999C436.519 566.778 437.331 567.752 438.388 569.161C441.364 582.713 442.615 595.603 442.459 609.46L442.56 610.169C443.114 614.305 442 618.306 442.487 622.343C443.557 621.685 443.808 620.79 444.148 619.614C444.989 616.704 445.021 614.043 446.602 611.346C444.727 624.916 439.653 637.271 435.697 650.283C433.859 656.328 432.595 662.642 431.321 668.828C430.202 674.259 428.967 680.002 429.213 685.567C427.268 682.726 424.215 680.01 420.7 679.372C418.1 678.9 415.433 679.853 413.386 681.433C410.589 683.592 408.494 687.223 408.082 690.734C407.901 692.273 407.903 693.868 407.867 695.417C408.157 696.611 408.734 698.191 408.781 699.393C408.403 702.204 409.43 704.854 409.429 707.682C410.32 707.476 410.954 707.035 411.763 707.557C412.559 708.072 412.28 707.873 412.909 708.777C413.206 709.888 413.54 710.996 413.747 712.128L414.083 712.407C415.94 710.73 417.747 710.718 420.139 710.552L420.874 710.75C424.051 711.605 427.017 711.663 430.284 711.618L432.84 711.244C432.334 720.246 432.211 729.25 431.766 738.25C431.523 743.17 429.742 748.908 430.947 753.683C431.145 755.48 431.345 757.265 431.651 759.047C431.836 759.794 432.052 760.529 432.141 761.295C427.414 760.664 422.756 760.177 417.989 759.958C413.856 760.159 409.595 760.921 405.5 760.945L403.788 761.269Q398.18 762.969 392.593 764.736C391.643 765.074 390.699 765.356 389.725 765.617C386.914 763.625 387.343 758.537 386.445 755.339L386.293 754.819C385.151 749.632 385.278 732.435 383.993 729.898C383.7 729.318 383.112 728.941 382.672 728.463C378.672 742.411 377.956 755.466 380.697 769.702C378.115 771.389 375.784 773.409 373.412 775.374C371.212 763.947 370.179 753.229 372.119 741.653C377.068 712.12 391.995 699.713 377.382 668.525C388.258 670.247 399.094 668.431 408.317 662.289C422.432 652.891 430.084 636.66 433.262 620.459C437.037 601.217 437.256 574.887 425.811 557.976C420.145 549.603 413.235 545.878 403.386 543.931Z"/>
	<path fill="#A83B08" d="M386.72 714.458C387.754 715.279 388.735 715.933 389.012 717.321C389.146 717.991 388.996 718.86 388.938 719.54C388.917 719.79 388.901 720.041 388.878 720.291C388.864 720.449 388.844 720.607 388.827 720.765L389.537 721.425L388.328 726.537C386.737 725.646 385.436 725.006 383.646 724.624L386.72 714.458Z"/>
	<path fill="#F2A26D" d="M391.672 697.142C392.533 697.513 393.147 697.801 394.086 697.909C392.795 702.977 391.588 708.041 390.676 713.193C390.225 715.736 390.417 719.073 389.537 721.425L388.827 720.765C388.844 720.607 388.864 720.449 388.878 720.291C388.901 720.041 388.917 719.79 388.938 719.54C388.996 718.86 389.146 717.991 389.012 717.321C388.735 715.933 387.754 715.279 386.72 714.458C388.007 708.671 390.137 702.896 391.672 697.142Z"/>
	<path fill="#DD6B32" d="M442.459 609.46L442.56 610.169C443.114 614.305 442 618.306 442.487 622.343C443.557 621.685 443.808 620.79 444.148 619.614C444.989 616.704 445.021 614.043 446.602 611.346C444.727 624.916 439.653 637.271 435.697 650.283C433.859 656.328 432.595 662.642 431.321 668.828C430.202 674.259 428.967 680.002 429.213 685.567C427.268 682.726 424.215 680.01 420.7 679.372C418.1 678.9 415.433 679.853 413.386 681.433C410.589 683.592 408.494 687.223 408.082 690.734C407.901 692.273 407.903 693.868 407.867 695.417C408.157 696.611 408.734 698.191 408.781 699.393C408.403 702.204 409.43 704.854 409.429 707.682C410.32 707.476 410.954 707.035 411.763 707.557C412.559 708.072 412.28 707.873 412.909 708.777C413.206 709.888 413.54 710.996 413.747 712.128L414.083 712.407C415.94 710.73 417.747 710.718 420.139 710.552L420.874 710.75C424.051 711.605 427.017 711.663 430.284 711.618L432.84 711.244C432.334 720.246 432.211 729.25 431.766 738.25C431.523 743.17 429.742 748.908 430.947 753.683C431.145 755.48 431.345 757.265 431.651 759.047C431.836 759.794 432.052 760.529 432.141 761.295C427.414 760.664 422.756 760.177 417.989 759.958C413.856 760.159 409.595 760.921 405.5 760.945L403.788 761.269Q398.18 762.969 392.593 764.736C391.643 765.074 390.699 765.356 389.725 765.617C386.914 763.625 387.343 758.537 386.445 755.339L386.293 754.819C385.151 749.632 385.278 732.435 383.993 729.898C383.7 729.318 383.112 728.941 382.672 728.463L383.646 724.624C385.436 725.006 386.737 725.646 388.328 726.537L389.537 721.425C390.417 719.073 390.225 715.736 390.676 713.193C391.588 708.041 392.795 702.977 394.086 697.909C393.147 697.801 392.533 697.513 391.672 697.142C393.182 689.951 392.522 683.334 390.465 676.348C400.544 676.83 408.965 673.479 416.907 667.326C429.772 657.357 437.442 640.954 440.469 625.236C441.469 620.043 441.779 614.703 442.459 609.46Z"/>
	<defs>
		<linearGradient id="gradient_5" gradientUnits="userSpaceOnUse" x1="400.6868" y1="725.14581" x2="387.61182" y2="725.37524">
			<stop offset="0" stop-color="#F2A26D"/>
			<stop offset="1" stop-color="#FCC590"/>
		</linearGradient>
	</defs>
	<path fill="url(#gradient_5)" d="M394.086 697.909C396.121 690.898 399.689 684.757 404.681 679.42C403.771 681.109 402.785 682.844 402.148 684.657C400.427 689.555 399.843 695.186 398.828 700.296C397.359 707.696 395.628 715.043 394.157 722.441C396.934 723.118 398.923 726.483 400.658 728.653C400.533 735.231 400.685 756.519 403.788 761.269Q398.18 762.969 392.593 764.736C391.643 765.074 390.699 765.356 389.725 765.617C386.914 763.625 387.343 758.537 386.445 755.339L386.293 754.819C385.151 749.632 385.278 732.435 383.993 729.898C383.7 729.318 383.112 728.941 382.672 728.463L383.646 724.624C385.436 725.006 386.737 725.646 388.328 726.537L389.537 721.425C390.417 719.073 390.225 715.736 390.676 713.193C391.588 708.041 392.795 702.977 394.086 697.909Z"/>
	<path fill="#B44725" d="M382.672 728.463L383.646 724.624C385.436 725.006 386.737 725.646 388.328 726.537Q387.319 732.854 387.262 739.25C387.196 743.697 387.784 748.739 386.715 753.053C386.569 753.641 386.44 754.231 386.293 754.819C385.151 749.632 385.278 732.435 383.993 729.898C383.7 729.318 383.112 728.941 382.672 728.463Z"/>
	<path fill="#B44725" d="M394.157 722.441C396.934 723.118 398.923 726.483 400.658 728.653C400.533 735.231 400.685 756.519 403.788 761.269Q398.18 762.969 392.593 764.736C391.991 750.472 390.174 736.505 394.157 722.441Z"/>
	<path fill="#FCC590" d="M407.867 695.417C408.157 696.611 408.734 698.191 408.781 699.393C408.403 702.204 409.43 704.854 409.429 707.682C410.32 707.476 410.954 707.035 411.763 707.557C412.559 708.072 412.28 707.873 412.909 708.777C413.206 709.888 413.54 710.996 413.747 712.128L414.083 712.407C415.94 710.73 417.747 710.718 420.139 710.552L420.874 710.75C424.051 711.605 427.017 711.663 430.284 711.618L432.84 711.244C432.334 720.246 432.211 729.25 431.766 738.25C431.523 743.17 429.742 748.908 430.947 753.683C431.145 755.48 431.345 757.265 431.651 759.047C431.836 759.794 432.052 760.529 432.141 761.295C427.414 760.664 422.756 760.177 417.989 759.958C413.856 760.159 409.595 760.921 405.5 760.945L403.788 761.269C400.685 756.519 400.533 735.231 400.658 728.653Q400.751 727.408 400.885 726.166C401.49 720.666 404.834 697.866 407.867 695.417Z"/>
	<path fill="#DD6B32" d="M420.874 710.75C424.051 711.605 427.017 711.663 430.284 711.618C429.003 711.889 427.476 711.889 426.591 712.869C424.491 723.554 425.396 735.726 426.227 746.534C424.188 744.303 422.362 741.946 420.852 739.325C420.294 739.538 420.61 739.394 419.851 739.876C418.95 740.448 418.944 740.253 417.939 740.104C418.213 739.8 418.576 739.557 418.76 739.191C419.36 737.992 420.405 715.641 420.627 712.512L420.874 710.75Z"/>
	<path fill="#B44725" d="M417.939 740.104C418.944 740.253 418.95 740.448 419.851 739.876C420.61 739.394 420.294 739.538 420.852 739.325C422.362 741.946 424.188 744.303 426.227 746.534C427.128 750.61 427.746 755.028 430.293 758.448L431.651 759.047C431.836 759.794 432.052 760.529 432.141 761.295C427.414 760.664 422.756 760.177 417.989 759.958L418.078 759.065C417.544 753.272 415.666 746.053 416.809 740.392L417.939 740.104Z"/>
	<path fill="#FCC590" d="M420.139 710.552L420.874 710.75L420.627 712.512C420.405 715.641 419.36 737.992 418.76 739.191C418.576 739.557 418.213 739.8 417.939 740.104L416.809 740.392C415.666 746.053 417.544 753.272 418.078 759.065C417.671 758.95 417.39 758.93 417.072 758.652C413.866 755.853 412.931 740.336 412.658 735.703Q412.823 724.022 414.083 712.407C415.94 710.73 417.747 710.718 420.139 710.552Z"/>
	<path fill="#FCC590" d="M407.867 695.417C408.157 696.611 408.734 698.191 408.781 699.393C408.403 702.204 409.43 704.854 409.429 707.682C410.32 707.476 410.954 707.035 411.763 707.557C412.559 708.072 412.28 707.873 412.909 708.777C413.206 709.888 413.54 710.996 413.747 712.128L414.083 712.407Q412.823 724.022 412.658 735.703C412.931 740.336 413.866 755.853 417.072 758.652C417.39 758.93 417.671 758.95 418.078 759.065L417.989 759.958C413.856 760.159 409.595 760.921 405.5 760.945L403.788 761.269C400.685 756.519 400.533 735.231 400.658 728.653Q400.751 727.408 400.885 726.166C401.49 720.666 404.834 697.866 407.867 695.417Z"/>
	<path fill="#DD6B32" d="M409.429 707.682C410.32 707.476 410.954 707.035 411.763 707.557C412.559 708.072 412.28 707.873 412.909 708.777C413.206 709.888 413.54 710.996 413.747 712.128L414.083 712.407Q412.823 724.022 412.658 735.703C409.921 734.539 407.649 733.524 405.37 731.562C407.519 727.574 408.424 716.657 409.114 711.756L409.429 707.682Z"/>
	<path fill="#DD6B32" d="M409.429 707.682C410.32 707.476 410.954 707.035 411.763 707.557C412.559 708.072 412.28 707.873 412.909 708.777C413.206 709.888 413.54 710.996 413.747 712.128C412.136 711.796 410.766 711.452 409.114 711.756L409.429 707.682Z"/>
	<path fill="#B44725" d="M405.37 731.562C407.649 733.524 409.921 734.539 412.658 735.703C412.931 740.336 413.866 755.853 417.072 758.652C417.39 758.93 417.671 758.95 418.078 759.065L417.989 759.958C413.856 760.159 409.595 760.921 405.5 760.945C404.489 751.535 403.814 740.869 405.37 731.562Z"/>
	<path fill="#FBFCFC" d="M501.854 334.644L503.365 272.267C503.548 261.853 502.392 247.726 504.423 237.776C505.529 237.089 505.715 237.19 507.036 237.277C508.093 237.985 508.627 238.183 508.941 239.515C509.619 242.387 508.6 252.704 508.567 256.35Q508.384 294.207 507.541 332.056L503.912 570.995L503.958 582.049C508.971 582.023 513.995 581.923 519.008 581.998Q519.401 601.305 519.369 620.615C519.414 629.332 519.783 638.127 519.12 646.828C519.176 652.932 519.59 659.267 519.221 665.346C519.392 674.996 520.195 685.312 519.177 694.913Q519.109 699.289 519.167 703.665C519.089 708.101 519.208 712.638 518.819 717.055Q511.412 716.98 504.01 716.713C504.053 718.52 504.311 719.653 503.458 721.27L501.721 722.034C501.923 725.507 502.744 728.794 503.536 732.169L503.293 732.418L503.032 732.169C500.486 731.111 497.035 730.888 494.443 732.003C493.146 732.561 492.253 733.209 491.77 734.604C491.671 734.89 491.662 735.201 491.608 735.499L493.585 742.841L493.776 743.25C495.765 749.614 498.435 755.731 500.352 762.12C505.411 778.968 507.736 796.926 507.976 814.49L504.397 817.152C503.142 799.541 500.484 782.449 495.672 765.437C491.004 748.936 484.946 732.926 481.441 716.087C486.961 716.391 492.467 716.439 497.993 716.471C498.25 709.134 497.794 701.75 497.657 694.409C493.375 693.914 489.022 693.732 484.721 693.42C482.829 684.329 481.661 674.557 480.95 665.295C479.921 659.92 478.596 654.148 476.044 649.273L473.83 648.089C475.885 645.728 475.538 628.361 475.591 624.43C478.142 624.879 479.927 624.927 482.414 624.162C485.063 621.689 487.237 618.864 487.51 615.117C487.808 611.017 484.967 607.374 482.406 604.489C484.078 600.096 482.75 590.121 483.807 584.669C487.125 585.631 494.515 583.434 498.052 582.872C497.939 577.691 497.964 572.496 497.926 567.313L499.048 477.153C499.527 465.913 499.416 454.664 499.576 443.417L500.518 396.749C500.9 376.084 502.056 355.299 501.854 334.644Z"/>
	<path fill="#294869" d="M488.166 721.429L501.721 722.034C501.923 725.507 502.744 728.794 503.536 732.169L503.293 732.418L503.032 732.169C500.486 731.111 497.035 730.888 494.443 732.003C493.146 732.561 492.253 733.209 491.77 734.604C491.671 734.89 491.662 735.201 491.608 735.499C490.604 730.775 489.368 726.106 488.166 721.429Z"/>
	<path fill="#010216" d="M503.393 646.769C508.57 646.889 513.988 646.404 519.12 646.828C519.176 652.932 519.59 659.267 519.221 665.346C514.024 664.788 508.697 664.943 503.493 665.333L503.393 646.769Z"/>
	<path fill="#010216" d="M503.437 694.287C508.666 694.517 513.946 694.921 519.177 694.913Q519.109 699.289 519.167 703.665C519.089 708.101 519.208 712.638 518.819 717.055Q511.412 716.98 504.01 716.713L503.92 713.094C502.997 707.155 503.489 700.323 503.437 694.287Z"/>
	<path fill="#310202" d="M503.437 694.287C508.666 694.517 513.946 694.921 519.177 694.913Q519.109 699.289 519.167 703.665C514.042 703.663 509.11 702.929 504.037 702.325C504.056 705.859 504.313 709.589 503.92 713.094C502.997 707.155 503.489 700.323 503.437 694.287Z"/>
	<path fill="#DD6B32" d="M503.493 665.333C508.697 664.943 514.024 664.788 519.221 665.346C519.392 674.996 520.195 685.312 519.177 694.913C513.946 694.921 508.666 694.517 503.437 694.287C502.67 684.911 503.47 674.799 503.493 665.333Z"/>
	<path fill="#DD6B32" d="M481.481 648.11C486.802 647.436 492.195 647.108 497.54 646.648L497.614 651.439C498.293 663.239 498.933 682.923 497.657 694.409C493.375 693.914 489.022 693.732 484.721 693.42C482.829 684.329 481.661 674.557 480.95 665.295C479.921 659.92 478.596 654.148 476.044 649.273L481.481 648.11Z"/>
	<path fill="#010216" d="M481.481 648.11C486.802 647.436 492.195 647.108 497.54 646.648L497.614 651.439Q497.463 658.277 497.563 665.116C492.008 665.033 486.501 665.066 480.95 665.295C479.921 659.92 478.596 654.148 476.044 649.273L481.481 648.11Z"/>
	<path fill="#DD6B32" d="M503.958 582.049C508.971 582.023 513.995 581.923 519.008 581.998Q519.401 601.305 519.369 620.615C519.414 629.332 519.783 638.127 519.12 646.828C513.988 646.404 508.57 646.889 503.393 646.769C503.134 625.227 503.712 603.596 503.958 582.049Z"/>
	<path fill="#DD6B32" d="M483.807 584.669C487.125 585.631 494.515 583.434 498.052 582.872Q498.684 614.767 497.54 646.648C492.195 647.108 486.802 647.436 481.481 648.11L476.044 649.273L473.83 648.089C475.885 645.728 475.538 628.361 475.591 624.43C478.142 624.879 479.927 624.927 482.414 624.162C485.063 621.689 487.237 618.864 487.51 615.117C487.808 611.017 484.967 607.374 482.406 604.489C484.078 600.096 482.75 590.121 483.807 584.669Z"/>
	<path fill="#FCC590" d="M482.414 624.162C483.42 627.875 481.45 642.892 481.481 648.11L476.044 649.273L473.83 648.089C475.885 645.728 475.538 628.361 475.591 624.43C478.142 624.879 479.927 624.927 482.414 624.162Z"/>
	<path fill="#FCC590" d="M457.523 404.808L458.425 404.671C459.552 404.493 460.571 404.171 461.653 403.815C462.562 404.634 463.422 405.107 463.761 406.308C463.529 406.415 463.293 406.515 463.064 406.629C462.31 407.001 461.916 407.297 461.34 407.881L461.419 408.569C464.2 407.033 466.967 405.535 469.874 404.247C468.219 418.733 468.036 433.827 467.928 448.41C468.397 465.043 467.078 481.687 467.225 498.294C467.266 502.923 467.774 507.5 468.017 512.116Q467.587 528.685 466.712 545.236C466.444 550.931 466.465 556.834 465.834 562.492C470.211 564.33 474.42 566.293 478.572 568.593L479.185 568.961C481.087 569.583 482.987 570.062 484.603 571.284L483.807 584.669C482.75 590.121 484.078 600.096 482.406 604.489C480.472 603.295 478.576 602.429 476.456 601.615L471.707 601.367C470.09 601.541 468.423 601.649 466.828 601.952L463.052 603.362C462.173 603.941 461.302 604.519 460.405 605.069C456.86 607.244 454.198 609.951 451.811 613.325L450.264 615.492C448.136 620.946 446.892 626.178 446.063 631.969C443.982 634.457 443.563 637.825 442.69 640.883C441.107 646.427 439.354 651.88 438.26 657.553C436.699 665.641 435.843 679.221 432.602 686.16C432.06 687.319 431.931 688.602 431.77 689.859C431.006 688.582 430.237 687.334 429.379 686.118L429.213 685.567C428.967 680.002 430.202 674.259 431.321 668.828C432.595 662.642 433.859 656.328 435.697 650.283C439.653 637.271 444.727 624.916 446.602 611.346C445.021 614.043 444.989 616.704 444.148 619.614C443.808 620.79 443.557 621.685 442.487 622.343C442 618.306 443.114 614.305 442.56 610.169L442.459 609.46C442.615 595.603 441.364 582.713 438.388 569.161C437.331 567.752 436.519 566.778 436.297 564.999Q435.968 563.837 435.538 562.708C432.065 553.36 423.899 542.851 414.725 538.552C416.046 531.713 415.887 524.537 415.584 517.604C414.613 495.392 409.913 473.486 416.923 451.701C423.044 432.68 439.841 413.928 457.523 404.808Z"/>
	<path fill="#DD6B32" d="M458.029 510.219C462.589 506.281 456.66 479.166 461.419 471.524C461.26 485.558 461.492 499.691 460.954 513.709C460.419 511.886 460.482 509.875 460.401 507.985C460.31 510.64 460.244 512.997 459.339 515.536L458.856 515.279L457.808 510.353L458.029 510.219Z"/>
	<path fill="#DD6B32" d="M464.465 570.344C464.328 568.027 463.792 565.322 464.556 563.107L465.834 562.492C470.211 564.33 474.42 566.293 478.572 568.593L479.185 568.961C481.087 569.583 482.987 570.062 484.603 571.284L483.807 584.669C482.75 590.121 484.078 600.096 482.406 604.489C480.472 603.295 478.576 602.429 476.456 601.615L471.707 601.367C470.09 601.541 468.423 601.649 466.828 601.952C467.561 598.542 467.409 594.762 467.623 591.268Q468.158 582.745 468.886 574.237C467.235 573.118 465.88 571.736 464.465 570.344Z"/>
	<path fill="#CC5929" d="M478.572 568.593L479.185 568.961C477.909 577.411 477.56 585.968 476.883 594.481L476.119 594.32C474.408 592.474 474.561 590.228 474.443 587.854C474.628 581.523 475.378 574.188 478.572 568.593Z"/>
	<path fill="#FBFCFC" d="M479.185 568.961C481.087 569.583 482.987 570.062 484.603 571.284L483.807 584.669C482.75 590.121 484.078 600.096 482.406 604.489C480.472 603.295 478.576 602.429 476.456 601.615C476.483 599.242 476.724 596.85 476.883 594.481C477.56 585.968 477.909 577.411 479.185 568.961Z"/>
	<defs>
		<linearGradient id="gradient_6" gradientUnits="userSpaceOnUse" x1="452.4151" y1="559.19885" x2="465.34985" y2="560.36688">
			<stop offset="0" stop-color="#DD6B32"/>
			<stop offset="1" stop-color="#B44725"/>
		</linearGradient>
	</defs>
	<path fill="url(#gradient_6)" d="M457.808 510.353L458.856 515.279L459.339 515.536C460.244 512.997 460.31 510.64 460.401 507.985C460.482 509.875 460.419 511.886 460.954 513.709C461.184 525.641 460.839 598.665 463.052 603.362C462.173 603.941 461.302 604.519 460.405 605.069C456.86 607.244 454.198 609.951 451.811 613.325L450.264 615.492C450.007 610.194 452.74 600.74 453.198 594.779C454.067 583.454 453.207 572.053 453.565 560.714C455.183 566.328 453.053 572.499 454.495 578.136L454.922 577.502C454.459 567.752 455.239 557.568 455.362 547.779C455.476 538.697 454.874 529.295 455.619 520.261C455.884 517.042 456.239 513.212 457.808 510.353Z"/>
	<defs>
		<linearGradient id="gradient_7" gradientUnits="userSpaceOnUse" x1="463.42184" y1="499.46509" x2="446.07816" y2="502.03491">
			<stop offset="0" stop-color="#E98B4E"/>
			<stop offset="1" stop-color="#A83B08"/>
		</linearGradient>
	</defs>
	<path fill="url(#gradient_7)" d="M455.516 443.034C457.437 436.76 460.001 431.448 463.236 425.746L461.939 449.17Q462.259 458.729 462.051 468.291L461.419 471.524C456.66 479.166 462.589 506.281 458.029 510.219L457.808 510.353C456.239 513.212 455.884 517.042 455.619 520.261C454.874 529.295 455.476 538.697 455.362 547.779C455.239 557.568 454.459 567.752 454.922 577.502L454.495 578.136C453.053 572.499 455.183 566.328 453.565 560.714Q452.837 521.331 452.752 481.94Q452.796 472.208 453.246 462.486C453.427 459.05 453.936 455.599 453.902 452.161Q454.56 447.571 455.516 443.034Z"/>
	<path fill="#F2A26D" d="M456.813 444.955L457.531 444.194C458.442 444.971 458.286 445.322 458.382 446.495C458.831 451.99 459.028 458.166 458.144 463.597C458.128 463.699 458.129 463.802 458.121 463.905C458.594 468.05 458.019 473.107 457.52 477.249C455.479 466.437 456.523 455.839 456.813 444.955Z"/>
	<path fill="#F2A26D" d="M459.692 464.391C459.827 459.806 459.552 454.94 460.711 450.492C460.615 451.282 460.67 452.063 460.689 452.857C461.407 451.474 460.938 450.43 461.939 449.17Q462.259 458.729 462.051 468.291L461.419 471.524C456.66 479.166 462.589 506.281 458.029 510.219C458.313 500.961 457.736 491.662 458.029 482.399C458.219 476.372 459.331 470.41 459.692 464.391Z"/>
	<path fill="#DD6B32" d="M455.516 443.034C457.437 436.76 460.001 431.448 463.236 425.746L461.939 449.17C460.938 450.43 461.407 451.474 460.689 452.857C460.67 452.063 460.615 451.282 460.711 450.492C459.552 454.94 459.827 459.806 459.692 464.391L458.121 463.905C458.129 463.802 458.128 463.699 458.144 463.597C459.028 458.166 458.831 451.99 458.382 446.495C458.286 445.322 458.442 444.971 457.531 444.194L456.813 444.955C456.075 444.556 455.895 443.766 455.516 443.034Z"/>
	<path fill="#FCC590" d="M449.813 448.598L450.348 448.923C450.962 446.875 451.434 444.567 452.662 442.798L453.533 442.695C454.289 443.477 454.386 443.572 454.363 444.724C454.31 447.4 453.143 449.422 453.902 452.161C453.936 455.599 453.427 459.05 453.246 462.486Q452.796 472.208 452.752 481.94Q452.837 521.331 453.565 560.714C453.207 572.053 454.067 583.454 453.198 594.779C452.74 600.74 450.007 610.194 450.264 615.492C448.136 620.946 446.892 626.178 446.063 631.969C443.982 634.457 443.563 637.825 442.69 640.883C441.107 646.427 439.354 651.88 438.26 657.553C436.699 665.641 435.843 679.221 432.602 686.16C432.06 687.319 431.931 688.602 431.77 689.859C431.006 688.582 430.237 687.334 429.379 686.118L429.213 685.567C428.967 680.002 430.202 674.259 431.321 668.828C432.595 662.642 433.859 656.328 435.697 650.283C439.653 637.271 444.727 624.916 446.602 611.346C449.852 589.648 448.939 567.919 448.289 546.071Q447.503 520.759 447.179 495.437C446.966 481.544 446.658 467.991 448.408 454.163C448.808 452.274 449.222 450.438 449.813 448.598Z"/>
	<path fill="#B44725" d="M448.264 443.322C448.381 446.874 447.012 449.995 446.574 453.458L446.987 453.277C447.224 452.636 447.463 452.296 447.867 451.757C447.861 452.584 447.818 452.137 448.136 453.244L448.408 454.163C446.658 467.991 446.966 481.544 447.179 495.437Q447.503 520.759 448.289 546.071C448.939 567.919 449.852 589.648 446.602 611.346C445.021 614.043 444.989 616.704 444.148 619.614C443.808 620.79 443.557 621.685 442.487 622.343C442 618.306 443.114 614.305 442.56 610.169L442.459 609.46C442.615 595.603 441.364 582.713 438.388 569.161C437.743 562.025 438.146 554.781 438.158 547.618L437.926 515.143C436.116 504.316 437.66 482.112 438.35 470.686C440.085 460.793 442.794 451.828 448.264 443.322Z"/>
	<path fill="#DD6B32" d="M448.264 443.322C448.381 446.874 447.012 449.995 446.574 453.458C445.865 457.009 445.351 460.708 444.391 464.195C443.302 468.15 441.767 472.078 441.082 476.129C440.081 482.047 440.344 488.169 440 494.138C439.863 496.511 439.829 499.432 439.057 501.686C438.948 498.765 439.395 490.652 438.382 488.288C437.391 497.102 438.364 506.25 437.926 515.143C436.116 504.316 437.66 482.112 438.35 470.686C440.085 460.793 442.794 451.828 448.264 443.322Z"/>
	<defs>
		<linearGradient id="gradient_8" gradientUnits="userSpaceOnUse" x1="479.38693" y1="510.26309" x2="412.45032" y2="447.32269">
			<stop offset="0" stop-color="#A83B08"/>
			<stop offset="1" stop-color="#DD6B32"/>
		</linearGradient>
	</defs>
	<path fill="url(#gradient_8)" d="M457.523 404.808L458.425 404.671C459.552 404.493 460.571 404.171 461.653 403.815C462.562 404.634 463.422 405.107 463.761 406.308C463.529 406.415 463.293 406.515 463.064 406.629C462.31 407.001 461.916 407.297 461.34 407.881L461.419 408.569C464.2 407.033 466.967 405.535 469.874 404.247C468.219 418.733 468.036 433.827 467.928 448.41C467.897 448.577 467.864 448.744 467.836 448.912C466.83 454.913 468.096 461.153 466.783 467.097C465.816 463.104 466.741 458.731 465.475 454.816L463.326 455.354C461.884 458.771 464.427 465.276 462.051 468.291Q462.259 458.729 461.939 449.17L463.236 425.746C460.001 431.448 457.437 436.76 455.516 443.034Q454.56 447.571 453.902 452.161C453.143 449.422 454.31 447.4 454.363 444.724C454.386 443.572 454.289 443.477 453.533 442.695L452.662 442.798C451.434 444.567 450.962 446.875 450.348 448.923L449.813 448.598C449.222 450.438 448.808 452.274 448.408 454.163L448.136 453.244C447.818 452.137 447.861 452.584 447.867 451.757C447.463 452.296 447.224 452.636 446.987 453.277L446.574 453.458C447.012 449.995 448.381 446.874 448.264 443.322C442.794 451.828 440.085 460.793 438.35 470.686C437.66 482.112 436.116 504.316 437.926 515.143L438.158 547.618C438.146 554.781 437.743 562.025 438.388 569.161C437.331 567.752 436.519 566.778 436.297 564.999Q435.968 563.837 435.538 562.708C432.065 553.36 423.899 542.851 414.725 538.552C416.046 531.713 415.887 524.537 415.584 517.604C414.613 495.392 409.913 473.486 416.923 451.701C423.044 432.68 439.841 413.928 457.523 404.808Z"/>
	<defs>
		<linearGradient id="gradient_9" gradientUnits="userSpaceOnUse" x1="422.58115" y1="486.87338" x2="431.41885" y2="486.12662">
			<stop offset="0" stop-color="#B44725"/>
			<stop offset="1" stop-color="#E98B4E"/>
		</linearGradient>
	</defs>
	<path fill="url(#gradient_9)" d="M424.116 510.492C423.532 495.817 423.47 468.778 429.089 455.781C429.198 458.135 429.264 460.448 429.17 462.805C428.473 468.68 427.197 474.443 426.643 480.339C425.793 489.389 426.167 498.252 426.262 507.316C426.282 509.294 426.547 517.412 425.23 518.653C423.849 516.911 425.896 511.507 424.116 510.492Z"/>
	<path fill="#FBFCFC" d="M433.767 466.072L434.128 468.182L434.43 467.983C435.173 461.825 437.704 447.981 442.878 444.066C443.065 443.924 443.263 443.798 443.455 443.665L444.291 443.937C446.565 450.489 436.304 461.287 438.35 470.686C437.66 482.112 436.116 504.316 437.926 515.143L438.158 547.618C438.146 554.781 437.743 562.025 438.388 569.161C437.331 567.752 436.519 566.778 436.297 564.999C436.659 558.115 435.575 550.776 435.257 543.847L433.61 504.688C433.085 491.756 432.315 478.978 433.767 466.072Z"/>
	<path fill="#FBFCFC" d="M461.419 408.569C464.2 407.033 466.967 405.535 469.874 404.247C468.219 418.733 468.036 433.827 467.928 448.41C467.897 448.577 467.864 448.744 467.836 448.912C466.83 454.913 468.096 461.153 466.783 467.097C465.816 463.104 466.741 458.731 465.475 454.816L463.326 455.354C461.884 458.771 464.427 465.276 462.051 468.291Q462.259 458.729 461.939 449.17L463.236 425.746C460.001 431.448 457.437 436.76 455.516 443.034Q454.56 447.571 453.902 452.161C453.143 449.422 454.31 447.4 454.363 444.724C454.386 443.572 454.289 443.477 453.533 442.695L452.662 442.798C451.434 444.567 450.962 446.875 450.348 448.923L449.813 448.598C449.222 450.438 448.808 452.274 448.408 454.163L448.136 453.244C447.818 452.137 447.861 452.584 447.867 451.757C447.463 452.296 447.224 452.636 446.987 453.277L446.574 453.458C447.012 449.995 448.381 446.874 448.264 443.322C442.794 451.828 440.085 460.793 438.35 470.686C436.304 461.287 446.565 450.489 444.291 443.937L443.455 443.665C443.263 443.798 443.065 443.924 442.878 444.066C437.704 447.981 435.173 461.825 434.43 467.983L434.128 468.182L433.767 466.072L434.499 461.251C433.755 459.694 432.92 458.305 431.967 456.867C430.715 458.763 430.147 460.787 429.17 462.805C429.264 460.448 429.198 458.135 429.089 455.781C423.47 468.778 423.532 495.817 424.116 510.492C423.684 518.711 425.882 528.943 424.205 536.845C423.259 535.001 422.808 532.549 422.625 530.48C422.008 523.496 422.112 516.163 421.739 509.119C421.064 496.336 419.963 483.369 420.423 470.564Q420.629 463.944 422.161 457.501C427.307 435.071 442.487 420.38 461.419 408.569Z"/>
	<path fill="#DD6B32" d="M448.264 443.322C449.652 440.633 450.963 437.822 452.53 435.238C451.771 439.734 450.823 444.154 449.813 448.598C449.222 450.438 448.808 452.274 448.408 454.163L448.136 453.244C447.818 452.137 447.861 452.584 447.867 451.757C447.463 452.296 447.224 452.636 446.987 453.277L446.574 453.458C447.012 449.995 448.381 446.874 448.264 443.322Z"/>
	<path fill="#DD6B32" d="M464.301 415.332C464.198 415.474 464.097 415.617 463.992 415.758C460.877 419.906 456.553 423.44 452.847 427.069C443.182 436.535 437.786 448.197 434.499 461.251C433.755 459.694 432.92 458.305 431.967 456.867C430.715 458.763 430.147 460.787 429.17 462.805C429.264 460.448 429.198 458.135 429.089 455.781C435.457 438.223 449.228 425.662 464.301 415.332Z"/>
	<path fill="#FBFCFC" d="M428.262 303.705C444.11 301.447 463.961 305.154 478.987 310.328C477.949 329.616 477.409 349.208 475.521 368.424C448.632 375.279 425.559 387.067 408.034 409.188C390.109 431.814 383.769 457.541 387.186 486.053C388.378 496.006 390.784 505.772 391.956 515.74C384.558 515.078 377.763 513.177 370.659 511.131C358.897 506.967 347.132 501.454 337.499 493.412C319.852 478.681 310.868 458.567 308.931 435.892Q308.808 434.413 308.722 432.932Q308.637 431.451 308.588 429.968Q308.539 428.485 308.527 427.001Q308.515 425.517 308.54 424.034Q308.565 422.55 308.627 421.068Q308.689 419.585 308.788 418.105Q308.887 416.624 309.023 415.147Q309.159 413.669 309.332 412.195Q309.504 410.722 309.714 409.253Q309.923 407.784 310.169 406.32Q310.415 404.857 310.697 403.4Q310.979 401.944 311.298 400.494Q311.616 399.045 311.971 397.604Q312.325 396.164 312.715 394.732Q313.106 393.301 313.531 391.879Q313.957 390.458 314.418 389.047Q314.88 387.637 315.376 386.239Q315.872 384.84 316.403 383.455Q316.934 382.069 317.499 380.697Q318.064 379.325 318.663 377.968Q319.262 376.611 319.895 375.268Q320.528 373.926 321.194 372.601Q321.86 371.275 322.559 369.966Q323.258 368.657 323.99 367.366Q324.721 366.075 325.484 364.803Q326.248 363.53 327.042 362.277Q327.837 361.024 328.663 359.791Q329.489 358.559 330.345 357.347Q331.201 356.135 332.087 354.945Q332.974 353.755 333.889 352.587Q334.805 351.42 335.749 350.275Q336.693 349.131 337.666 348.01C360.612 321.202 393.414 306.349 428.262 303.705Z"/>
	<path fill="#DD6B32" d="M547.081 390.233L547.162 388.247C548.445 387.492 549.55 387.711 550.95 388.092C574.828 394.594 597.023 411.275 608.852 433.096C619.771 453.237 618.893 474.869 616.074 496.865C614.881 506.175 613.551 515.544 614.026 524.957C614.357 531.507 615.886 537.701 617.681 543.979C608.451 545.457 601.732 549.67 596.291 557.254C584.961 573.047 585 598.054 588.139 616.489C591.121 633.993 598.282 652.253 613.283 662.857C623.162 669.84 632.948 670.324 644.639 668.819C632.453 693.924 640.79 706.184 647.41 730.858C650.854 743.696 651.852 758.116 649.626 771.267C647.941 793.943 631.625 815.975 614.941 830.287Q608.476 835.909 601.058 840.196C583.961 849.563 566.64 856.582 547.129 858.841C555.025 855.29 563.854 853.347 572.03 850.442C599.118 840.817 624.3 820.34 636.748 794.04C645.792 774.933 646.95 752.013 642.194 731.573C640.742 725.335 638.507 719.372 636.379 713.344C635.007 714.766 634.69 716.662 634.174 718.514L633.777 719.13C633.29 720.845 633.02 722.665 631.554 723.819C630.425 724.121 629.517 724.231 628.348 724.223L627.784 722.058C627.692 722.265 627.594 722.469 627.508 722.679C627.034 723.839 627.271 723.235 626.994 724.491C626.555 726.49 625.354 727.115 623.743 728.13C623.45 726.39 623.266 724.639 623.066 722.886C623.074 725.239 623.089 727.068 622.009 729.217C621.917 729.4 621.831 729.586 621.737 729.768C620.836 731.493 618.818 734.13 617.197 735.204C615.149 735.635 613.794 736.224 612.661 738.083C610.59 741.485 612.217 748.046 611.585 752.106C611.407 748.261 611.512 744.374 611.403 740.519L610.226 740.355L609.282 741.417C608.947 744.874 608.837 754.096 606.116 756.199C605.95 756.327 605.767 756.432 605.593 756.549C605.439 752.589 605.466 748.655 605.541 744.694L605.029 743.474C603.862 742.971 603.125 743.514 601.952 743.891L600.116 745.762C601.624 750.537 599.143 765.17 598.011 770.147C597.896 767.925 598.141 765.984 596.94 764.024L596.398 764.102L595.708 763C594.324 763.601 594.037 763.437 592.527 763.157L592.374 763.568C592.037 762.567 592.044 762.878 592.034 762.025C592.012 760.122 591.919 758.288 591.32 756.456C590.903 755.178 590.542 754.763 589.365 754.177C587.911 754.5 587.126 755.341 586.066 756.31L585.776 755.927C582.886 759.778 580.57 765.163 578.496 769.539C578.371 768.883 578.263 768.228 578.151 767.569C577.149 761.637 577.81 755.502 577.316 749.507L576.617 749.017C574.737 752.861 573.789 757.01 572.015 760.844C569.756 764.415 567.421 769.241 564.213 772.023L563.344 772.026C563.061 771.192 562.829 770.481 562.697 769.605L562.302 771.519C561.431 771.86 560.981 771.912 560.054 771.788C559.217 770.208 559.957 767.327 559.78 765.435L559.727 764.917C559.735 764.769 559.725 764.618 559.753 764.473C560.114 762.588 562.72 759.625 564.179 758.414C564.918 755.49 565.024 752.345 565.179 749.339C565.056 749.478 564.931 749.615 564.809 749.755C560.454 754.765 550.738 772.419 544.99 773.381L543.608 772.862C551.018 757.008 556.355 722.068 557.294 704.01C554.458 698.148 550.68 693.525 546.118 688.923C546.592 681.015 548.616 673.227 548.62 665.253C548.982 664.115 549.41 662.99 549.806 661.863C550.2 657.984 550.774 653.89 550.304 650.008L549.52 649.789C546.958 649.297 544.444 648.869 542.012 647.887C542.077 643.944 541.97 640.076 541.65 636.144C541.366 632.66 540.406 628.277 540.877 624.875C539.418 623.979 538.069 623.056 536.964 621.725C535.21 619.613 534.379 616.764 534.641 614.042C535.098 609.305 537.875 606.139 541.341 603.24C540.61 597.32 540.53 591.324 539.76 585.394C539.141 580.65 538.645 575.962 538.43 571.181C539.643 570.248 541.065 569.693 542.445 569.042C546.878 566.164 552.732 564.394 557.7 562.541C557.36 560.656 557.24 558.712 557.046 556.805C555.915 545.829 555.82 534.643 555.435 523.615C552.418 498.986 551.371 474.3 549.886 449.54C548.705 429.843 546.882 409.966 547.081 390.233Z"/>
	<path fill="#A83B08" d="M599.008 721.915C598.908 718.576 598.712 715.217 598.935 711.881C599.933 715.267 601.341 719.021 601.455 722.574C600.964 723.548 600.585 724.288 600.291 725.343C600.025 724.009 599.626 723.106 599.008 721.915Z"/>
	<path fill="#CC5929" d="M611.564 723.846C612.42 729.582 611.605 734.79 611.403 740.519L610.226 740.355L609.282 741.417L609.278 741.178C609.126 735.264 611.451 729.811 611.564 723.846Z"/>
	<path fill="#83200D" d="M564.179 758.414L562.697 769.605L562.302 771.519C561.431 771.86 560.981 771.912 560.054 771.788C559.217 770.208 559.957 767.327 559.78 765.435L559.727 764.917C559.735 764.769 559.725 764.618 559.753 764.473C560.114 762.588 562.72 759.625 564.179 758.414Z"/>
	<path fill="#310202" d="M582.169 616.193C582.768 622.501 583.919 628.698 585.33 634.872L584.622 634.461C584.188 633.266 583.968 632.287 583.046 631.376C583.371 632.673 583.999 634.198 583.906 635.527L583.364 635.55C581.283 630.414 579.839 624.836 578.503 619.465L580.859 619.36C582.02 618.416 581.879 617.607 582.169 616.193Z"/>
	<path fill="#83200D" d="M601.455 722.574C602.637 727.608 605.925 740.122 605.541 744.694L605.029 743.474C603.862 742.971 603.125 743.514 601.952 743.891C601.279 737.736 600.962 731.518 600.291 725.343C600.585 724.288 600.964 723.548 601.455 722.574Z"/>
	<path fill="#83200D" d="M587.705 744.483L588.434 744.163C589.29 745.199 589.588 746.23 589.984 747.484C590.845 748.161 591.409 748.357 592.428 748.707C592.521 753.491 592.281 758.396 592.527 763.157L592.374 763.568C592.037 762.567 592.044 762.878 592.034 762.025C592.012 760.122 591.919 758.288 591.32 756.456C590.903 755.178 590.542 754.763 589.365 754.177C587.911 754.5 587.126 755.341 586.066 756.31L585.776 755.927C586.556 752.123 587.169 748.329 587.705 744.483Z"/>
	<path fill="#B44725" d="M599.008 721.915C599.626 723.106 600.025 724.009 600.291 725.343C600.962 731.518 601.279 737.736 601.952 743.891L600.116 745.762C599.55 744.703 599.639 745.143 599.566 744.007C599.453 742.259 599.58 740.966 598.599 739.427C597.819 734.323 598.029 726.989 599.008 721.915Z"/>
	<path fill="#FCC590" d="M570.254 724.826C571.548 728.659 569.374 733.333 570.169 737.267C570.596 739.379 571.952 742.121 571.106 744.138L569.69 743.241C567.634 740.478 566.08 737.667 566.042 734.127C566.002 730.366 567.768 727.482 570.254 724.826Z"/>
	<path fill="#310202" d="M611.548 714.729C613.023 719.077 615.043 732.851 617.197 735.204C615.149 735.635 613.794 736.224 612.661 738.083C610.59 741.485 612.217 748.046 611.585 752.106C611.407 748.261 611.512 744.374 611.403 740.519C611.605 734.79 612.42 729.582 611.564 723.846L611.548 714.729Z"/>
	<path fill="#83200D" d="M598.599 739.427C599.58 740.966 599.453 742.259 599.566 744.007C599.639 745.143 599.55 744.703 600.116 745.762C601.624 750.537 599.143 765.17 598.011 770.147C597.896 767.925 598.141 765.984 596.94 764.024L596.398 764.102L595.708 763C597.882 755.646 598.194 747.076 598.599 739.427Z"/>
	<path fill="#83200D" d="M620.615 701.042C623.401 707.817 625.94 714.968 627.784 722.058C627.692 722.265 627.594 722.469 627.508 722.679C627.034 723.839 627.271 723.235 626.994 724.491C626.555 726.49 625.354 727.115 623.743 728.13C623.45 726.39 623.266 724.639 623.066 722.886C622.669 715.585 621.538 708.294 620.615 701.042Z"/>
	<path fill="#A83B08" d="M587.705 744.483C588.06 735.113 588.227 725.712 588.687 716.35C590.684 727.085 590.65 738.037 592.428 748.707C591.409 748.357 590.845 748.161 589.984 747.484C589.588 746.23 589.29 745.199 588.434 744.163L587.705 744.483Z"/>
	<path fill="#310202" d="M579.614 421.039C579.672 420.161 579.64 418.99 579.906 418.161C580.399 416.627 581.43 416.563 582.768 416.027C588.108 421.273 593.082 426.296 597.46 432.405C595.919 433.501 594.259 434.519 593.105 436.039Q590.214 431.882 586.828 428.118Q583.442 424.353 579.614 421.039Z"/>
	<path fill="#A83B08" d="M583.364 635.55L583.906 635.527C583.999 634.198 583.371 632.673 583.046 631.376C583.968 632.287 584.188 633.266 584.622 634.461L585.33 634.872C590.325 646.49 592.731 653.778 601.08 663.558C599.342 662.977 597.606 662.347 595.829 661.898C593.868 664.667 594.888 669.935 595.439 673.133C595.842 675.474 596.119 678.476 596.985 680.667C596.354 681.608 595.708 682.436 594.947 683.276C595.046 676.395 592.141 654.933 588.284 649.427C586.413 644.997 584.499 640.222 583.364 635.55Z"/>
	<path fill="#B44725" d="M630.487 812.037C628.494 813.616 626.998 815.536 624.758 816.84C624.347 815.268 629.257 811.348 630.443 810.171C638.957 801.727 642.406 787.758 646.766 776.932C647.552 774.981 648.741 773.191 649.626 771.267C647.941 793.943 631.625 815.975 614.941 830.287Q608.476 835.909 601.058 840.196C605.5 832.418 610.819 832.168 617.045 827.084C622.166 822.902 626.742 817.459 630.487 812.037Z"/>
	<path fill="#A83B08" d="M616.026 679.423C622.577 679.232 628.719 677.497 635.041 675.919C631.52 686.52 632.48 693.905 634.771 704.572C635.324 707.149 636.214 710.031 636.352 712.65C636.364 712.881 636.37 713.113 636.379 713.344C635.007 714.766 634.69 716.662 634.174 718.514C632.912 704.452 626.305 689.217 616.026 679.423Z"/>
	<path fill="#A83B08" d="M548.93 623.304C549.003 623.164 549.079 623.025 549.15 622.883C549.261 622.66 549.366 622.434 549.477 622.21C551.846 617.401 548.598 615.215 549.638 611.602L550.517 611.215C552.991 611.483 554.527 612.18 556.228 613.976C555.581 615.193 555.457 616.05 555.413 617.433C555.23 623.169 556.045 629.151 556.329 634.908C556.712 642.652 556.699 650.433 556.844 658.186C554.384 659.045 552.594 660.006 550.425 661.457C550.22 661.595 550.012 661.728 549.806 661.863C550.2 657.984 550.774 653.89 550.304 650.008L549.52 649.789C546.958 649.297 544.444 648.869 542.012 647.887C542.077 643.944 541.97 640.076 541.65 636.144C541.366 632.66 540.406 628.277 540.877 624.875C544.031 625.109 546.055 624.634 548.93 623.304Z"/>
	<path fill="#DD6B32" d="M548.93 623.304C548.947 631.665 547.925 641.636 549.52 649.789C546.958 649.297 544.444 648.869 542.012 647.887C542.077 643.944 541.97 640.076 541.65 636.144C541.366 632.66 540.406 628.277 540.877 624.875C544.031 625.109 546.055 624.634 548.93 623.304Z"/>
	<path fill="#010216" d="M546.525 601.497C550.175 601.369 553.612 601.259 557.146 602.374C564.165 605.298 568.343 609.084 572.227 615.604C573.35 618.98 574.321 622.583 575.762 625.829C579.095 634.957 581.653 644.633 584.088 654.043C585.681 660.2 589.175 684.285 592.377 687.886L593.285 686.031C594.007 685.237 594.443 684.22 594.947 683.276C595.708 682.436 596.354 681.608 596.985 680.667C598.534 680.064 599.918 679.606 601.601 679.54C605.003 679.407 608.04 680.162 610.489 682.633C613.314 685.485 614.472 689.702 614.406 693.632Q614.397 694.536 614.299 695.434Q614.201 696.333 614.015 697.217Q613.828 698.102 613.555 698.963Q613.282 699.825 612.924 700.655Q612.567 701.485 612.129 702.276Q611.692 703.067 611.178 703.81Q610.664 704.554 610.079 705.243Q609.493 705.931 608.843 706.559C604.835 710.365 599.399 711.874 593.966 711.69C586.612 711.44 580.546 707.995 575.616 702.739C549.993 675.418 571.696 630.909 556.228 613.976C554.527 612.18 552.991 611.483 550.517 611.215L549.638 611.602C548.598 615.215 551.846 617.401 549.477 622.21C549.366 622.434 549.261 622.66 549.15 622.883C549.079 623.025 549.003 623.164 548.93 623.304C546.055 624.634 544.031 625.109 540.877 624.875C539.418 623.979 538.069 623.056 536.964 621.725C535.21 619.613 534.379 616.764 534.641 614.042C535.098 609.305 537.875 606.139 541.341 603.24C542.955 602.373 544.767 601.977 546.525 601.497Z"/>
	<path fill="#A83B08" d="M575.762 625.829C579.095 634.957 581.653 644.633 584.088 654.043C585.681 660.2 589.175 684.285 592.377 687.886C591.292 690.722 593.969 697.106 594.778 700.116C594.241 700.547 594.42 700.545 593.72 700.554C590.479 700.591 586.975 698.734 584.792 696.416C574.675 685.675 576.335 654.09 576.225 639.914C576.188 635.209 575.73 630.536 575.762 625.829Z"/>
	<path fill="#DD6B32" d="M547.081 390.233L547.411 392.743C547.556 393.835 547.598 394.135 548.271 395.044C561.16 401.028 572.539 405.663 582.768 416.027C581.43 416.563 580.399 416.627 579.906 418.161C579.64 418.99 579.672 420.161 579.614 421.039Q583.442 424.353 586.828 428.118Q590.214 431.882 593.105 436.039C594.259 434.519 595.919 433.501 597.46 432.405C622.177 469.468 603.079 500.336 609.343 539.235C593.041 550.164 587.459 559.853 583.59 579.247C581.229 591.078 581.279 604.192 582.169 616.193C581.879 617.607 582.02 618.416 580.859 619.36L578.503 619.465C579.839 624.836 581.283 630.414 583.364 635.55C584.499 640.222 586.413 644.997 588.284 649.427C592.141 654.933 595.046 676.395 594.947 683.276C594.443 684.22 594.007 685.237 593.285 686.031L592.377 687.886C589.175 684.285 585.681 660.2 584.088 654.043C581.653 644.633 579.095 634.957 575.762 625.829C574.321 622.583 573.35 618.98 572.227 615.604C568.343 609.084 564.165 605.298 557.146 602.374C553.612 601.259 550.175 601.369 546.525 601.497C544.767 601.977 542.955 602.373 541.341 603.24C540.61 597.32 540.53 591.324 539.76 585.394C539.141 580.65 538.645 575.962 538.43 571.181C539.643 570.248 541.065 569.693 542.445 569.042C546.878 566.164 552.732 564.394 557.7 562.541C557.36 560.656 557.24 558.712 557.046 556.805C555.915 545.829 555.82 534.643 555.435 523.615C552.418 498.986 551.371 474.3 549.886 449.54C548.705 429.843 546.882 409.966 547.081 390.233Z"/>
	<path fill="#B44725" d="M557.046 556.805C557.185 557.015 557.33 557.22 557.463 557.434C559.467 560.636 558.429 565.48 561.092 568.499L561.36 568.553L560.845 567.098L561.366 567.544C561.347 566.243 561.042 564.269 561.66 563.166L562.05 566.024C561.78 570.798 561.914 576.018 561.067 580.705C560.957 576.435 559.092 572.886 559.342 568.451C559.668 566.74 558.52 564.067 557.7 562.541C557.36 560.656 557.24 558.712 557.046 556.805Z"/>
	<path fill="#B44725" d="M588.284 649.427C592.141 654.933 595.046 676.395 594.947 683.276C594.443 684.22 594.007 685.237 593.285 686.031C590.277 678.659 591.075 669.104 590.375 661.271C590.019 657.296 589.089 653.328 588.284 649.427Z"/>
	<path fill="#310202" d="M572.263 442.446L573.324 442.243C576.026 445.603 578.622 465.808 578.553 470.623C578.686 475.651 579.251 480.801 578.964 485.819C578.659 484.555 578.333 483.368 577.888 482.142L577.309 481.937C575.908 485.72 577.189 490.338 576.128 494.283C575.869 484.737 576.403 475.179 575.752 465.634C575.22 457.821 573.718 450.127 572.263 442.446Z"/>
	<path fill="#A83B08" d="M570.417 435.076C577.909 446.499 584.241 459.744 584.056 473.709C583.459 472.248 583.281 470.358 582.473 469.023C581.838 467.971 581.637 467.856 580.453 467.709C579.397 468.686 579.068 469.325 578.553 470.623C578.622 465.808 576.026 445.603 573.324 442.243L572.263 442.446L570.417 435.076Z"/>
	<path fill="#83200D" d="M568.041 586.245C568.732 589.809 568.656 593.382 569.182 596.961C570.032 602.741 572.871 609.9 572.227 615.604C568.343 609.084 564.165 605.298 557.146 602.374C558.433 602.088 559.439 601.852 560.569 601.12C561.19 599.895 561.112 599.559 561.024 598.167L560.957 596.547C563.27 597.311 565.671 597.117 568.079 597.092C567.938 593.458 567.877 589.88 568.041 586.245Z"/>
	<path fill="#A83B08" d="M562.602 482.988C562.785 463.446 564.205 444.054 560.607 424.721C565.886 436.062 567.828 448.878 569.048 461.214L567.373 459.074L567.22 458.208C566.624 454.7 567.132 451.047 565.784 447.7C565.232 448.628 565.158 449.038 565.076 450.095C564.614 456.025 564.641 479.478 562.602 482.988Z"/>
	<path fill="#83200D" d="M578.553 470.623C579.068 469.325 579.397 468.686 580.453 467.709C581.637 467.856 581.838 467.971 582.473 469.023C583.281 470.358 583.459 472.248 584.056 473.709C584.179 484.309 585.121 500.669 583.57 510.713C583.511 514.662 583.568 518.655 583.057 522.576C582.885 519.264 581.79 516.511 580.957 513.349C579.662 508.439 579.225 503.568 579.509 498.505C579.57 494.319 579.062 490.027 578.964 485.819C579.251 480.801 578.686 475.651 578.553 470.623Z"/>
	<path fill="#310202" d="M579.509 498.505C580.364 500.003 580.509 500.733 580.536 502.459L581.272 503.501L582.141 503.592C583.301 501.704 582.623 499.637 583.196 497.534C583.92 501.897 583.134 506.332 583.57 510.713C583.511 514.662 583.568 518.655 583.057 522.576C582.885 519.264 581.79 516.511 580.957 513.349C579.662 508.439 579.225 503.568 579.509 498.505Z"/>
	<path fill="#CC5929" d="M562.602 482.988C564.641 479.478 564.614 456.025 565.076 450.095C565.158 449.038 565.232 448.628 565.784 447.7C567.132 451.047 566.624 454.7 567.22 458.208L567.373 459.074C567.626 468.796 566.072 477.726 565.104 487.336C564.103 497.288 563.447 508.772 564.056 518.734Q563.633 534.614 562.997 550.487C562.798 555.503 563.012 561.129 562.05 566.024L561.66 563.166C561.836 551.068 562.395 538.889 562.787 526.786C562.98 520.841 563.496 514.971 563.2 509.018L563.131 509.278C562.986 508.125 562.764 506.986 562.553 505.844C560.035 514.863 562.876 557.282 559.559 561.963L558.993 561.803C558.579 558.643 559.736 555.687 560.002 552.576C560.462 547.207 560.703 541.582 560.972 536.179C561.853 518.455 561.096 500.725 562.602 482.988Z"/>
	<path fill="#310202" d="M558.79 414.582C573.047 422.288 585.416 437.477 592.374 451.885C596.607 459.524 598.294 468.863 598.038 477.54C598.042 483.87 598.772 491.32 597.528 497.528C597.097 493.855 596.988 490.11 596.482 486.464C595.059 476.214 592.688 466.004 590.371 455.929C589.529 452.267 589.127 448.514 587.559 445.072C587.424 444.777 587.298 444.479 587.162 444.185C587.08 444.008 586.99 443.833 586.904 443.657L586.148 443.876C586.073 444.284 585.885 444.686 585.923 445.099C586.112 447.095 587.765 449.516 588.433 451.497C589.412 454.405 590.073 457.43 590.591 460.451C592.155 469.568 592.719 489.279 590.539 498.14C590.096 489.819 590.736 481.339 590.606 472.987C590.134 442.794 577.845 434.655 558.79 414.582Z"/>
	<path fill="#83200D" d="M592.374 451.885C596.607 459.524 598.294 468.863 598.038 477.54L596.876 477.19C593.744 471.633 591.905 458.309 592.374 451.885Z"/>
	<path fill="#310202" d="M567.373 459.074L569.048 461.214C569.681 478.847 569.57 496.526 569.556 514.17C569.549 522.102 570.366 531.348 569.099 539.108C568.685 554.83 568.037 570.513 568.041 586.245C567.877 589.88 567.938 593.458 568.079 597.092C565.671 597.117 563.27 597.311 560.957 596.547C560.875 591.269 561.004 585.983 561.067 580.705C561.914 576.018 561.78 570.798 562.05 566.024C563.012 561.129 562.798 555.503 562.997 550.487Q563.633 534.614 564.056 518.734C563.447 508.772 564.103 497.288 565.104 487.336C566.072 477.726 567.626 468.796 567.373 459.074Z"/>
	<path fill="#83200D" d="M567.373 459.074L569.048 461.214C569.681 478.847 569.57 496.526 569.556 514.17C569.549 522.102 570.366 531.348 569.099 539.108C568.318 526.743 569.318 514.09 568.943 501.679C568.807 497.198 567.8 492.924 567.483 488.493C567.254 485.299 567.907 481.689 567.263 478.605C564.545 482.727 565.306 510.892 564.158 518.126L564.056 518.734C563.447 508.772 564.103 497.288 565.104 487.336C566.072 477.726 567.626 468.796 567.373 459.074Z"/>
	<path fill="#A83B08" d="M542.445 569.042C546.878 566.164 552.732 564.394 557.7 562.541C558.52 564.067 559.668 566.74 559.342 568.451C559.092 572.886 560.957 576.435 561.067 580.705C561.004 585.983 560.875 591.269 560.957 596.547L561.024 598.167C561.112 599.559 561.19 599.895 560.569 601.12C559.439 601.852 558.433 602.088 557.146 602.374C553.612 601.259 550.175 601.369 546.525 601.497C544.767 601.977 542.955 602.373 541.341 603.24C540.61 597.32 540.53 591.324 539.76 585.394C539.141 580.65 538.645 575.962 538.43 571.181C539.643 570.248 541.065 569.693 542.445 569.042Z"/>
	<path fill="#FBFCFC" d="M542.445 569.042C545.285 576.957 546.502 593.035 546.525 601.497C544.767 601.977 542.955 602.373 541.341 603.24C540.61 597.32 540.53 591.324 539.76 585.394C539.141 580.65 538.645 575.962 538.43 571.181C539.643 570.248 541.065 569.693 542.445 569.042Z"/>
	<path fill="#CC5929" d="M553.463 572.977C555.302 571.276 557.297 569.888 559.342 568.451C559.092 572.886 560.957 576.435 561.067 580.705C561.004 585.983 560.875 591.269 560.957 596.547L561.024 598.167C560.644 599.319 560.267 599.993 559.19 600.639C557.984 601.362 557.096 601.427 555.792 601.127C554.434 599.365 553.37 576.516 553.463 572.977Z"/>
	<defs>
		<linearGradient id="gradient_10" gradientUnits="userSpaceOnUse" x1="583.90381" y1="447.83841" x2="547.42303" y2="452.17523">
			<stop offset="0" stop-color="#83200D"/>
			<stop offset="1" stop-color="#A83B08"/>
		</linearGradient>
	</defs>
	<path fill="url(#gradient_10)" d="M547.081 390.233L547.411 392.743C547.556 393.835 547.598 394.135 548.271 395.044C561.16 401.028 572.539 405.663 582.768 416.027C581.43 416.563 580.399 416.627 579.906 418.161C579.64 418.99 579.672 420.161 579.614 421.039C571.954 414.722 562.83 407.372 553.353 404.269C555.014 427.024 555.166 449.401 555.589 472.175C555.905 489.216 556.843 506.612 555.435 523.615C552.418 498.986 551.371 474.3 549.886 449.54C548.705 429.843 546.882 409.966 547.081 390.233Z"/>
	<defs>
		<linearGradient id="gradient_11" gradientUnits="userSpaceOnUse" x1="609.64777" y1="533.57379" x2="561.13342" y2="517.34607">
			<stop offset="0" stop-color="#010216"/>
			<stop offset="1" stop-color="#310202"/>
		</linearGradient>
	</defs>
	<path fill="url(#gradient_11)" d="M593.105 436.039C594.259 434.519 595.919 433.501 597.46 432.405C622.177 469.468 603.079 500.336 609.343 539.235C593.041 550.164 587.459 559.853 583.59 579.247C581.229 591.078 581.279 604.192 582.169 616.193C581.879 617.607 582.02 618.416 580.859 619.36L578.503 619.465C573.775 599.287 574.43 579.786 574.734 559.236C575.054 537.579 575.968 515.945 576.128 494.283C577.189 490.338 575.908 485.72 577.309 481.937L577.888 482.142C578.333 483.368 578.659 484.555 578.964 485.819C579.062 490.027 579.57 494.319 579.509 498.505C579.225 503.568 579.662 508.439 580.957 513.349C581.79 516.511 582.885 519.264 583.057 522.576C583.308 537.338 582.813 552.177 582.633 566.944C584.883 562.252 586.918 557.266 587.989 552.161C589.351 545.676 589.151 538.585 589.406 531.981Q590.085 515.064 590.539 498.14C592.719 489.279 592.155 469.568 590.591 460.451C590.073 457.43 589.412 454.405 588.433 451.497C587.765 449.516 586.112 447.095 585.923 445.099C585.885 444.686 586.073 444.284 586.148 443.876L586.904 443.657C586.99 443.833 587.08 444.008 587.162 444.185C587.298 444.479 587.424 444.777 587.559 445.072C589.127 448.514 589.529 452.267 590.371 455.929C592.688 466.004 595.059 476.214 596.482 486.464C596.988 490.11 597.097 493.855 597.528 497.528C598.193 512.254 596.722 527.234 596.56 541.986L601.706 537.479C601.316 523.523 602.164 509.444 602.776 495.503C603.331 482.854 604.341 469.791 601.666 457.314C600.025 449.663 596.974 442.804 593.105 436.039Z"/>
</svg>
